<?xml version="1.0" encoding="UTF-8" standalone="no"?>
<!-- Created with Inkscape (http://www.inkscape.org/) -->

<svg
   width="45.189697mm"
   height="21.442295mm"
   viewBox="0 0 45.189697 21.442295"
   version="1.1"
   id="svg1"
   xmlns="http://www.w3.org/2000/svg"
   xmlns:svg="http://www.w3.org/2000/svg">
  <defs
     id="defs1" />
  <g
     id="layer1"
     transform="translate(-100.54164,-167.48125)">
    <g
       id="g2375"
       transform="matrix(0.26458333,0,0,0.26458333,-721.49226,69.805198)">
      <g
         id="g82">
        <path
           id="path83"
           d="m 0,0 c -0.081,16.665 -13.612,30.15 -30.296,30.15 -16.734,0 -30.299,-13.566 -30.299,-30.3 0,-16.684 13.485,-30.215 30.149,-30.296 l 30.45,-0.004 z"
           style="fill:#1e3c75;fill-opacity:1;fill-rule:nonzero;stroke:none"
           transform="matrix(1.3333333,0,0,-1.3333333,3187.6932,409.36933)" />
      </g>
      <path
         id="path84"
         d="m 0,0 c 0,13.463 -10.914,24.377 -24.377,24.377 -13.464,0 -24.378,-10.914 -24.378,-24.377 0,-13.463 10.914,-24.377 24.378,-24.377 C -10.914,-24.377 0,-13.463 0,0 m -0.48,0 c 0,-13.198 -10.699,-23.897 -23.897,-23.897 -13.198,0 -23.897,10.699 -23.897,23.897 0,13.198 10.699,23.897 23.897,23.897 C -11.179,23.897 -0.48,13.198 -0.48,0 m -1.082,1.601 c 0.021,0.003 0.032,0.009 0.031,0.018 L -1.655,2.596 C -1.659,2.603 -1.669,2.605 -1.686,2.603 -1.712,2.6 -1.724,2.593 -1.723,2.584 -1.708,2.471 -1.713,2.39 -1.738,2.34 -1.762,2.291 -1.818,2.261 -1.907,2.25 L -2.797,2.137 C -2.804,2.116 -2.821,2.086 -2.847,2.048 -2.872,2.01 -2.916,1.97 -2.979,1.928 -3.042,1.885 -3.125,1.857 -3.228,1.844 -3.281,1.838 -3.335,1.836 -3.391,1.838 -3.446,1.841 -3.502,1.849 -3.56,1.86 c -0.124,0.024 -0.23,0.094 -0.319,0.211 -0.088,0.116 -0.142,0.253 -0.163,0.412 -0.052,0.413 0.153,0.648 0.615,0.706 l 1.378,0.176 c 0.089,0.011 0.151,-0.004 0.188,-0.045 0.036,-0.045 0.06,-0.121 0.074,-0.229 0.002,-0.009 0.016,-0.012 0.04,-0.009 0.019,0.002 0.029,0.007 0.028,0.015 L -1.843,4.073 C -1.846,4.08 -1.858,4.082 -1.878,4.08 -1.901,4.077 -1.912,4.072 -1.911,4.064 -1.897,3.953 -1.901,3.873 -1.925,3.824 -1.949,3.776 -2.005,3.746 -2.095,3.734 L -3.518,3.553 C -3.569,3.547 -3.619,3.536 -3.667,3.52 -3.715,3.503 -3.763,3.482 -3.809,3.458 -3.902,3.406 -3.981,3.335 -4.047,3.246 -4.115,3.157 -4.162,3.046 -4.19,2.915 -4.218,2.783 -4.222,2.636 -4.201,2.474 -4.19,2.386 -4.162,2.296 -4.118,2.205 -4.074,2.114 -4.037,2.048 -4.008,2.009 -3.992,1.883 -3.996,1.76 -4.018,1.642 -4.041,1.523 -4.098,1.443 -4.191,1.4 l 0.315,-0.405 c 0.089,0.143 0.113,0.373 0.073,0.692 l -0.021,0.169 c 0.041,-0.042 0.1,-0.075 0.175,-0.098 0.074,-0.025 0.145,-0.04 0.212,-0.046 0.039,-0.004 0.071,-0.005 0.097,-0.006 0.024,-10e-4 0.046,0 0.064,0.002 l 1.415,0.18 c 0.091,0.011 0.154,-0.005 0.188,-0.048 0.036,-0.044 0.06,-0.12 0.074,-0.229 0.002,-0.009 0.014,-0.013 0.037,-0.01 m -0.699,3.232 c 0.056,0.087 0.092,0.194 0.109,0.32 C -2.135,5.28 -2.144,5.42 -2.18,5.576 -2.216,5.73 -2.269,5.86 -2.34,5.966 -2.411,6.072 -2.491,6.154 -2.583,6.21 -2.674,6.268 -2.77,6.302 -2.869,6.316 -2.968,6.331 -3.068,6.326 -3.171,6.302 L -4.532,5.988 C -4.623,5.967 -4.691,5.976 -4.738,6.014 -4.786,6.053 -4.821,6.124 -4.844,6.228 -4.849,6.235 -4.86,6.236 -4.88,6.231 -4.903,6.226 -4.913,6.22 -4.911,6.212 L -4.69,5.254 c 0.002,-0.007 0.013,-0.009 0.033,-0.004 0.024,0.005 0.035,0.013 0.033,0.022 -0.019,0.082 -0.016,0.157 0.009,0.224 0.025,0.066 0.081,0.109 0.167,0.129 l 1.316,0.304 c 0.197,0.046 0.354,0.046 0.471,0.002 0.117,-0.043 0.2,-0.103 0.247,-0.178 C -2.367,5.678 -2.336,5.607 -2.32,5.54 -2.306,5.48 -2.304,5.406 -2.315,5.319 -2.325,5.232 -2.374,5.143 -2.461,5.05 -2.547,4.958 -2.688,4.89 -2.881,4.845 L -2.999,4.817 C -3.089,4.797 -3.155,4.8 -3.196,4.829 -3.237,4.856 -3.267,4.913 -3.286,4.997 -3.29,5.004 -3.306,5.004 -3.334,4.998 -3.355,4.993 -3.365,4.987 -3.364,4.979 l 0.194,-0.84 c 0.004,-0.007 0.018,-0.008 0.043,-0.002 0.025,0.006 0.036,0.012 0.035,0.02 -0.006,0.028 -0.01,0.055 -0.011,0.082 -10e-4,0.027 -0.002,0.05 -10e-4,0.067 0.006,0.04 0.023,0.071 0.051,0.093 0.027,0.023 0.074,0.041 0.137,0.056 l 0.163,0.038 c 0.1,0.023 0.194,0.064 0.279,0.122 0.087,0.059 0.157,0.132 0.213,0.218 m -0.494,2.601 c 0.021,0.008 0.03,0.017 0.026,0.025 L -3.09,8.375 c -0.005,0.006 -0.015,0.006 -0.032,0 C -3.146,8.365 -3.156,8.356 -3.152,8.347 -3.11,8.241 -3.096,8.162 -3.107,8.107 -3.118,8.054 -3.165,8.011 -3.248,7.978 L -4.083,7.648 C -4.085,7.627 -4.094,7.594 -4.109,7.551 -4.125,7.507 -4.158,7.458 -4.208,7.401 -4.259,7.345 -4.332,7.297 -4.429,7.259 -4.479,7.24 -4.53,7.225 -4.585,7.213 -4.639,7.203 -4.696,7.196 -4.754,7.193 -4.881,7.185 -5,7.227 -5.115,7.318 c -0.114,0.091 -0.201,0.21 -0.26,0.36 -0.152,0.386 -0.012,0.665 0.422,0.836 l 1.292,0.509 c 0.083,0.034 0.148,0.034 0.193,0.003 0.046,-0.034 0.088,-0.102 0.128,-0.203 0.005,-0.009 0.018,-0.009 0.041,0 0.018,0.008 0.027,0.015 0.024,0.022 L -3.636,9.76 C -3.641,9.766 -3.653,9.766 -3.671,9.758 -3.693,9.75 -3.702,9.742 -3.7,9.735 -3.658,9.631 -3.643,9.552 -3.654,9.499 -3.665,9.446 -3.713,9.403 -3.797,9.37 L -5.132,8.844 C -5.179,8.825 -5.224,8.802 -5.267,8.774 -5.31,8.747 -5.351,8.715 -5.39,8.68 -5.467,8.606 -5.526,8.518 -5.569,8.416 -5.611,8.313 -5.63,8.194 -5.625,8.06 -5.62,7.924 -5.587,7.781 -5.527,7.629 -5.494,7.547 -5.445,7.467 -5.38,7.389 -5.315,7.312 -5.263,7.258 -5.225,7.227 -5.179,7.108 -5.152,6.989 -5.145,6.868 -5.138,6.748 -5.173,6.656 -5.252,6.592 l 0.404,-0.316 c 0.052,0.161 0.018,0.39 -0.1,0.689 l -0.061,0.159 c 0.05,-0.031 0.115,-0.048 0.193,-0.053 0.079,-0.005 0.151,-0.002 0.217,0.008 0.04,0.006 0.071,0.012 0.095,0.018 0.025,0.006 0.046,0.012 0.063,0.018 l 1.326,0.524 c 0.086,0.033 0.151,0.033 0.195,-0.001 0.045,-0.033 0.087,-0.101 0.127,-0.204 0.005,-0.008 0.018,-0.009 0.038,0 m -1.176,2.839 c 0.019,0.011 0.026,0.022 0.02,0.032 l -0.49,0.851 -0.057,-0.036 c 0.057,-0.099 0.083,-0.176 0.08,-0.23 -0.004,-0.055 -0.044,-0.104 -0.122,-0.149 l -1.213,-0.698 c -0.175,-0.1 -0.326,-0.146 -0.453,-0.136 -0.127,0.01 -0.222,0.042 -0.285,0.098 -0.064,0.056 -0.112,0.111 -0.143,0.167 -0.065,0.112 -0.089,0.245 -0.072,0.395 0.018,0.151 0.15,0.298 0.398,0.441 l 1.213,0.698 c 0.078,0.044 0.141,0.054 0.191,0.03 0.05,-0.028 0.102,-0.088 0.156,-0.182 0.006,-0.008 0.019,-0.006 0.041,0.006 0.017,0.01 0.024,0.019 0.02,0.025 l -0.49,0.853 c -0.006,0.005 -0.017,0.003 -0.035,-0.007 -0.02,-0.012 -0.028,-0.021 -0.024,-0.027 0.055,-0.097 0.082,-0.174 0.079,-0.227 -0.004,-0.054 -0.044,-0.104 -0.123,-0.149 L -6.49,11.31 c -0.117,-0.068 -0.213,-0.161 -0.289,-0.28 -0.075,-0.119 -0.112,-0.258 -0.108,-0.418 0.004,-0.159 0.058,-0.33 0.162,-0.511 0.105,-0.182 0.225,-0.313 0.363,-0.394 0.137,-0.081 0.276,-0.118 0.418,-0.112 0.141,0.006 0.272,0.042 0.389,0.11 l 1.237,0.712 c 0.08,0.045 0.144,0.055 0.194,0.029 0.05,-0.025 0.102,-0.084 0.154,-0.175 0.008,-0.009 0.02,-0.008 0.039,0.002 m -2.132,3.399 c 0.018,0.013 0.024,0.023 0.019,0.031 l -0.536,0.754 c -0.007,0.006 -0.018,0.004 -0.036,-0.008 -0.019,-0.013 -0.025,-0.024 -0.019,-0.032 0.058,-0.083 0.085,-0.152 0.077,-0.206 -0.007,-0.055 -0.047,-0.108 -0.123,-0.163 l -1.783,-1.267 0.493,-0.694 c 0.061,-0.086 0.105,-0.173 0.131,-0.263 0.026,-0.09 0.037,-0.172 0.035,-0.244 -0.002,-0.075 -0.014,-0.133 -0.034,-0.176 l 0.46,-0.195 c 0.012,0.172 -0.094,0.414 -0.316,0.727 l -0.442,0.62 1.671,1.189 c 0.072,0.051 0.139,0.068 0.2,0.049 0.062,-0.019 0.117,-0.061 0.165,-0.128 0.008,-0.008 0.021,-0.006 0.038,0.006 m -1.022,1.312 c 0.016,0.016 0.021,0.027 0.014,0.034 L -7.75,15.73 c -0.007,0.004 -0.017,0 -0.03,-0.012 -0.018,-0.018 -0.024,-0.03 -0.018,-0.037 0.079,-0.082 0.123,-0.151 0.133,-0.205 0.01,-0.054 -0.018,-0.112 -0.082,-0.173 l -0.65,-0.619 c 0.006,-0.021 0.011,-0.055 0.013,-0.101 0.002,-0.046 -0.01,-0.104 -0.036,-0.176 -0.025,-0.071 -0.075,-0.142 -0.15,-0.214 -0.039,-0.037 -0.082,-0.07 -0.128,-0.101 -0.046,-0.03 -0.096,-0.058 -0.149,-0.083 -0.114,-0.055 -0.241,-0.061 -0.381,-0.02 -0.14,0.041 -0.265,0.119 -0.376,0.235 -0.287,0.301 -0.262,0.612 0.075,0.934 l 1.006,0.959 c 0.064,0.061 0.124,0.086 0.177,0.074 0.056,-0.014 0.12,-0.061 0.196,-0.14 0.007,-0.006 0.02,-10e-4 0.038,0.016 0.014,0.014 0.018,0.023 0.013,0.029 l -0.679,0.712 c -0.007,0.004 -0.017,-0.001 -0.032,-0.015 -0.017,-0.016 -0.022,-0.026 -0.017,-0.032 0.077,-0.081 0.121,-0.149 0.131,-0.202 0.009,-0.053 -0.018,-0.111 -0.084,-0.173 l -1.038,-0.99 c -0.037,-0.035 -0.07,-0.074 -0.1,-0.115 -0.029,-0.042 -0.055,-0.087 -0.078,-0.134 -0.043,-0.097 -0.065,-0.201 -0.066,-0.312 -0.001,-0.111 0.027,-0.229 0.082,-0.351 0.056,-0.123 0.14,-0.244 0.253,-0.362 0.061,-0.064 0.137,-0.12 0.226,-0.167 0.09,-0.047 0.158,-0.078 0.205,-0.093 0.088,-0.092 0.157,-0.193 0.209,-0.301 0.052,-0.109 0.054,-0.207 0.005,-0.297 l 0.493,-0.14 c -0.012,0.168 -0.129,0.368 -0.351,0.601 l -0.117,0.124 c 0.058,-0.009 0.124,-10e-4 0.199,0.024 0.074,0.024 0.14,0.054 0.198,0.089 0.034,0.02 0.061,0.038 0.081,0.053 0.021,0.014 0.038,0.027 0.051,0.04 l 1.032,0.984 c 0.066,0.064 0.127,0.087 0.181,0.073 0.053,-0.014 0.119,-0.061 0.195,-0.141 0.007,-0.006 0.018,-0.002 0.035,0.013 m -2.253,1.78 0.501,-0.055 c -0.036,0.163 -0.183,0.347 -0.443,0.551 l -0.755,0.594 -0.039,-0.057 c 0.084,-0.066 0.133,-0.129 0.148,-0.19 0.016,-0.061 -0.005,-0.126 -0.061,-0.197 l -0.848,-1.08 c -0.125,-0.159 -0.248,-0.257 -0.369,-0.296 -0.122,-0.039 -0.222,-0.043 -0.302,-0.015 -0.079,0.027 -0.145,0.061 -0.195,0.101 -0.102,0.08 -0.174,0.193 -0.214,0.34 -0.04,0.146 0.028,0.332 0.205,0.557 l 0.848,1.08 c 0.055,0.07 0.114,0.104 0.179,0.104 0.064,0 0.128,-0.026 0.194,-0.077 0.01,-0.005 0.021,0.001 0.034,0.017 0.014,0.017 0.017,0.029 0.01,0.035 l -0.727,0.571 c -0.009,0.005 -0.019,0 -0.032,-0.017 -0.015,-0.018 -0.018,-0.03 -0.01,-0.037 0.08,-0.062 0.125,-0.121 0.133,-0.175 0.008,-0.055 -0.015,-0.118 -0.073,-0.191 l -0.875,-1.113 c -0.083,-0.106 -0.138,-0.229 -0.164,-0.367 -0.025,-0.139 -0.007,-0.282 0.056,-0.429 0.064,-0.146 0.177,-0.284 0.342,-0.413 0.163,-0.128 0.324,-0.203 0.484,-0.226 0.16,-0.022 0.305,-0.004 0.435,0.055 0.129,0.06 0.237,0.144 0.323,0.252 l 0.834,1.061 0.164,0.208 c 0.022,-0.022 0.053,-0.059 0.094,-0.112 0.041,-0.055 0.078,-0.124 0.109,-0.21 0.031,-0.086 0.036,-0.177 0.014,-0.269 m -2.444,2.386 c 0.011,0.02 0.012,0.032 0.004,0.037 l -0.853,0.49 c -0.008,0.002 -0.016,-0.004 -0.025,-0.019 -0.013,-0.023 -0.015,-0.036 -0.006,-0.041 0.098,-0.057 0.16,-0.11 0.185,-0.159 0.024,-0.049 0.014,-0.112 -0.03,-0.19 l -0.448,-0.778 c 0.013,-0.018 0.026,-0.049 0.041,-0.093 0.015,-0.043 0.02,-0.103 0.016,-0.178 -0.004,-0.076 -0.032,-0.158 -0.084,-0.248 -0.027,-0.047 -0.058,-0.091 -0.093,-0.134 -0.036,-0.042 -0.076,-0.083 -0.12,-0.122 -0.094,-0.084 -0.214,-0.126 -0.36,-0.127 -0.146,0 -0.288,0.039 -0.427,0.12 -0.361,0.207 -0.425,0.512 -0.192,0.916 l 0.692,1.205 c 0.045,0.077 0.094,0.118 0.149,0.122 0.057,0.001 0.133,-0.025 0.227,-0.079 0.009,-0.004 0.02,0.004 0.032,0.026 0.01,0.017 0.011,0.027 0.005,0.031 l -0.853,0.49 c -0.008,0.002 -0.016,-0.005 -0.027,-0.023 -0.011,-0.02 -0.014,-0.032 -0.007,-0.036 0.097,-0.055 0.159,-0.108 0.183,-0.156 0.024,-0.048 0.014,-0.111 -0.032,-0.19 l -0.715,-1.243 c -0.025,-0.044 -0.045,-0.091 -0.062,-0.139 -0.016,-0.049 -0.029,-0.099 -0.037,-0.151 -0.014,-0.105 -0.005,-0.21 0.025,-0.317 0.031,-0.108 0.09,-0.212 0.178,-0.314 0.088,-0.102 0.203,-0.194 0.345,-0.275 0.077,-0.045 0.165,-0.076 0.265,-0.096 0.099,-0.02 0.173,-0.03 0.222,-0.031 0.111,-0.063 0.206,-0.14 0.287,-0.23 0.08,-0.09 0.109,-0.183 0.088,-0.283 l 0.513,0.005 c -0.06,0.158 -0.229,0.316 -0.508,0.477 l -0.147,0.085 c 0.059,0.008 0.119,0.035 0.184,0.08 0.064,0.045 0.119,0.092 0.165,0.142 0.026,0.029 0.047,0.053 0.063,0.073 0.015,0.019 0.028,0.037 0.037,0.053 l 0.711,1.236 c 0.045,0.08 0.097,0.12 0.152,0.122 0.056,0.001 0.132,-0.025 0.227,-0.08 0.009,-0.004 0.019,0.003 0.03,0.022 m -3.185,1.754 0.178,0.098 -0.028,0.042 c -0.105,-0.035 -0.221,-0.078 -0.346,-0.127 l -0.291,-0.111 0.146,-0.391 0.013,-0.051 c 0.004,-0.011 0.006,-0.022 0.006,-0.032 l -0.003,-0.024 c -0.01,-0.015 -0.03,-0.031 -0.062,-0.047 l -1.482,-0.401 1.196,-1.428 c 0.008,-0.012 0.016,-0.032 0.025,-0.062 0.009,-0.03 0.01,-0.06 0.002,-0.089 -0.008,-0.038 -0.014,-0.063 -0.017,-0.074 -0.004,-0.012 -0.012,-0.03 -0.024,-0.056 l -0.033,-0.101 c -0.002,-0.013 0.004,-0.024 0.017,-0.03 l 0.034,-0.015 0.327,0.665 -1.012,1.215 1.474,0.387 -0.146,0.473 -0.02,0.049 c -0.01,0.032 -0.012,0.054 -0.007,0.066 0.01,0.015 0.027,0.03 0.053,0.044 m -3.042,-0.213 c 0.007,0.001 0.014,0.011 0.018,0.032 0.006,0.022 0.004,0.033 -0.003,0.035 l -0.829,0.191 c -0.008,0 -0.014,-0.008 -0.018,-0.025 -0.005,-0.026 -0.004,-0.04 0.006,-0.042 0.045,-0.01 0.081,-0.023 0.109,-0.039 0.028,-0.015 0.049,-0.031 0.063,-0.049 0.028,-0.034 0.031,-0.095 0.011,-0.185 l -0.046,-0.197 c -0.04,-0.176 -0.107,-0.301 -0.199,-0.375 -0.092,-0.075 -0.183,-0.115 -0.272,-0.121 -0.09,-0.006 -0.167,-0.002 -0.233,0.013 -0.056,0.013 -0.122,0.045 -0.197,0.095 -0.074,0.05 -0.134,0.135 -0.179,0.254 -0.044,0.12 -0.045,0.276 0,0.471 l 0.308,1.333 -0.229,0.053 c -0.09,0.02 -0.18,0.07 -0.269,0.149 -0.088,0.079 -0.156,0.163 -0.204,0.253 -0.049,0.089 -0.067,0.159 -0.056,0.21 l -0.427,-0.225 c 0.056,-0.113 0.15,-0.205 0.281,-0.277 0.071,-0.038 0.131,-0.069 0.18,-0.091 0.049,-0.023 0.093,-0.041 0.135,-0.054 l 0.197,-0.046 -0.292,-1.265 c -0.03,-0.132 -0.028,-0.265 0.01,-0.399 0.036,-0.136 0.114,-0.256 0.232,-0.363 0.119,-0.108 0.28,-0.185 0.483,-0.232 0.154,-0.036 0.298,-0.045 0.429,-0.029 0.131,0.015 0.242,0.051 0.334,0.104 0.092,0.054 0.167,0.122 0.225,0.205 0.059,0.081 0.099,0.17 0.121,0.266 l 0.041,0.179 c 0.014,0.062 0.032,0.106 0.053,0.134 0.02,0.027 0.046,0.042 0.077,0.047 0.037,0.006 0.084,0.003 0.14,-0.01 m -3.67,-0.129 -0.17,0.014 c 0.049,0.032 0.093,0.083 0.131,0.151 0.039,0.068 0.068,0.135 0.088,0.199 0.012,0.038 0.02,0.069 0.026,0.094 0.005,0.024 0.009,0.045 0.01,0.064 l 0.108,1.422 c 0.007,0.091 0.036,0.149 0.085,0.175 0.05,0.025 0.13,0.034 0.24,0.026 0.009,0 0.015,0.011 0.017,0.033 10e-4,0.022 -0.003,0.034 -0.013,0.034 l -0.981,0.075 c -0.008,-0.002 -0.012,-0.011 -0.014,-0.029 -10e-4,-0.026 0.003,-0.039 0.012,-0.039 0.114,-0.009 0.192,-0.03 0.236,-0.064 0.043,-0.034 0.061,-0.095 0.054,-0.184 l -0.068,-0.895 c 0.019,-0.011 0.045,-0.033 0.077,-0.066 0.033,-0.033 0.063,-0.084 0.091,-0.154 0.029,-0.07 0.04,-0.157 0.032,-0.26 -0.004,-0.054 -0.013,-0.107 -0.027,-0.16 -0.014,-0.054 -0.033,-0.108 -0.055,-0.162 -0.048,-0.117 -0.138,-0.207 -0.27,-0.271 -0.131,-0.063 -0.277,-0.088 -0.437,-0.076 -0.415,0.032 -0.604,0.28 -0.569,0.744 l 0.105,1.385 c 0.007,0.09 0.035,0.148 0.082,0.175 0.051,0.026 0.131,0.035 0.239,0.026 0.009,0.001 0.016,0.013 0.018,0.038 0.001,0.019 -0.002,0.03 -0.009,0.03 l -0.981,0.075 c -0.008,-0.002 -0.013,-0.013 -0.014,-0.033 -0.002,-0.023 10e-4,-0.034 0.009,-0.035 0.111,-0.009 0.189,-0.029 0.231,-0.062 0.043,-0.034 0.061,-0.095 0.055,-0.186 l -0.109,-1.43 c -0.004,-0.05 -0.003,-0.101 0.003,-0.152 0.006,-0.05 0.017,-0.101 0.031,-0.152 0.033,-0.1 0.086,-0.192 0.16,-0.275 0.074,-0.084 0.173,-0.153 0.297,-0.206 0.123,-0.055 0.267,-0.088 0.429,-0.1 0.088,-0.007 0.182,0.002 0.28,0.027 0.098,0.025 0.17,0.048 0.214,0.068 0.127,-0.009 0.246,-0.037 0.358,-0.083 0.111,-0.047 0.178,-0.118 0.202,-0.218 l 0.46,0.227 c -0.122,0.116 -0.343,0.186 -0.663,0.21 m -2.393,-0.092 c 0.008,0 0.011,0.011 0.011,0.032 -0.001,0.024 -0.007,0.037 -0.016,0.036 -0.087,-0.002 -0.161,0.016 -0.222,0.056 -0.062,0.038 -0.094,0.101 -0.096,0.188 l -0.029,1.111 c -0.002,0.089 0.023,0.154 0.075,0.196 0.051,0.042 0.119,0.064 0.2,0.066 0.008,0.002 0.011,0.016 0.011,0.04 0,0.008 -0.002,0.013 -0.004,0.018 -0.002,0.005 -0.004,0.008 -0.005,0.01 L -25.075,22.2 c -0.009,0 -0.013,-0.011 -0.013,-0.033 0.001,-0.024 0.006,-0.036 0.014,-0.036 0.1,0.003 0.172,-0.013 0.216,-0.048 0.044,-0.034 0.068,-0.101 0.07,-0.2 l 0.01,-0.394 c 0.003,-0.106 -0.053,-0.189 -0.169,-0.247 -0.115,-0.059 -0.244,-0.09 -0.385,-0.094 l -0.165,0.026 c -0.045,0.012 -0.098,0.04 -0.16,0.083 -0.062,0.043 -0.115,0.112 -0.161,0.206 -0.025,0.052 -0.043,0.107 -0.055,0.166 -0.01,0.059 -0.017,0.129 -0.019,0.21 l -0.02,0.772 c -0.004,0.168 0.086,0.254 0.271,0.258 0.007,0.003 0.011,0.016 0.01,0.039 0,0.011 -0.001,0.018 -0.003,0.023 -0.002,0.004 -0.004,0.007 -0.005,0.006 l -0.93,-0.023 c -0.008,-0.003 -0.011,-0.014 -0.011,-0.034 10e-4,-0.023 0.005,-0.034 0.012,-0.034 0.104,0.003 0.178,-0.014 0.218,-0.05 0.042,-0.035 0.064,-0.1 0.066,-0.194 l 0.021,-0.822 c 0.003,-0.138 0.038,-0.268 0.102,-0.39 0.065,-0.122 0.165,-0.22 0.3,-0.293 0.135,-0.073 0.306,-0.106 0.515,-0.101 0.116,0.003 0.215,0.021 0.294,0.052 0.08,0.033 0.146,0.068 0.197,0.105 l 0.084,0.059 0.011,-0.44 c 0.003,-0.093 -0.02,-0.159 -0.067,-0.197 -0.047,-0.038 -0.125,-0.059 -0.231,-0.062 -0.009,-0.001 -0.014,-0.012 -0.013,-0.034 0,-0.023 0.006,-0.034 0.015,-0.034 z m -2.457,0.047 c -0.147,0.083 -0.378,0.095 -0.695,0.039 l -0.168,-0.029 c 0.04,0.043 0.07,0.103 0.09,0.179 0.021,0.076 0.032,0.147 0.035,0.214 0.002,0.04 0.002,0.072 0.001,0.097 0,0.025 -0.002,0.047 -0.006,0.065 l -0.25,1.404 c -0.016,0.09 -0.003,0.154 0.039,0.19 0.041,0.037 0.116,0.066 0.225,0.085 0.009,0.003 0.012,0.015 0.008,0.037 -0.004,0.022 -0.011,0.032 -0.02,0.03 l -0.969,-0.173 c -0.007,-0.004 -0.009,-0.013 -0.006,-0.031 0.005,-0.026 0.011,-0.037 0.021,-0.035 0.112,0.02 0.193,0.019 0.244,-0.003 0.05,-0.022 0.083,-0.076 0.099,-0.165 l 0.158,-0.883 c 0.021,-0.006 0.051,-0.021 0.091,-0.045 0.039,-0.024 0.081,-0.066 0.127,-0.126 0.045,-0.061 0.077,-0.142 0.095,-0.244 0.009,-0.053 0.014,-0.107 0.014,-0.163 0,-0.055 -0.005,-0.111 -0.013,-0.169 -0.018,-0.126 -0.083,-0.235 -0.194,-0.33 -0.111,-0.093 -0.246,-0.155 -0.404,-0.183 -0.409,-0.073 -0.655,0.119 -0.737,0.578 l -0.244,1.368 c -0.015,0.088 -0.004,0.151 0.036,0.19 0.043,0.038 0.117,0.065 0.225,0.085 0.009,0.003 0.011,0.016 0.007,0.041 -0.004,0.019 -0.009,0.028 -0.016,0.027 l -0.969,-0.173 c -0.007,-0.004 -0.009,-0.015 -0.005,-0.035 0.004,-0.023 0.01,-0.034 0.017,-0.032 0.111,0.019 0.191,0.019 0.24,-0.003 0.05,-0.021 0.083,-0.076 0.099,-0.165 l 0.252,-1.412 c 0.009,-0.05 0.023,-0.099 0.041,-0.147 0.019,-0.047 0.042,-0.094 0.068,-0.139 0.058,-0.089 0.132,-0.165 0.224,-0.227 0.092,-0.063 0.205,-0.104 0.338,-0.126 0.133,-0.022 0.281,-0.018 0.441,0.011 0.088,0.016 0.176,0.048 0.265,0.097 0.088,0.048 0.152,0.089 0.19,0.119 0.125,0.022 0.247,0.025 0.367,0.008 0.119,-0.017 0.202,-0.07 0.25,-0.159 z m -3.332,-0.598 c 0.056,0.083 0.093,0.17 0.112,0.259 0.02,0.091 0.019,0.174 -0.004,0.253 -0.049,0.172 -0.145,0.298 -0.291,0.377 -0.145,0.079 -0.346,0.147 -0.604,0.204 -0.257,0.058 -0.444,0.109 -0.56,0.155 -0.116,0.045 -0.19,0.123 -0.221,0.233 -0.031,0.107 -0.012,0.208 0.057,0.302 0.068,0.093 0.149,0.154 0.243,0.181 0.116,0.033 0.226,0.034 0.327,0.001 0.1,-0.032 0.187,-0.078 0.259,-0.137 0.042,-0.035 0.076,-0.066 0.103,-0.094 0.026,-0.028 0.054,-0.061 0.082,-0.097 l 0.102,-0.132 0.084,0.024 -0.304,0.751 -0.044,-0.013 -0.026,-0.007 c 0.005,-0.029 0,-0.057 -0.014,-0.088 -0.014,-0.03 -0.037,-0.05 -0.071,-0.059 -0.037,-0.011 -0.099,-0.014 -0.188,-0.01 -0.087,0.005 -0.154,0.006 -0.2,0.005 -0.033,10e-4 -0.062,-0.002 -0.09,-0.009 -0.028,-0.007 -0.057,-0.016 -0.088,-0.024 -0.132,-0.037 -0.241,-0.098 -0.327,-0.182 -0.086,-0.085 -0.142,-0.181 -0.17,-0.287 -0.028,-0.107 -0.027,-0.211 0.002,-0.312 0.046,-0.162 0.135,-0.279 0.266,-0.348 0.131,-0.07 0.317,-0.132 0.561,-0.186 0.243,-0.054 0.426,-0.111 0.55,-0.17 0.124,-0.059 0.207,-0.16 0.247,-0.303 0.035,-0.123 0.015,-0.233 -0.061,-0.332 -0.075,-0.098 -0.18,-0.166 -0.315,-0.205 -0.159,-0.045 -0.299,-0.019 -0.418,0.079 -0.119,0.098 -0.216,0.216 -0.292,0.355 l -0.332,-0.256 c 0.022,-0.037 0.071,-0.092 0.146,-0.163 0.075,-0.072 0.195,-0.13 0.36,-0.173 0.166,-0.044 0.371,-0.031 0.616,0.038 0.102,0.03 0.198,0.078 0.287,0.144 0.088,0.068 0.161,0.143 0.216,0.226 m -2.375,0.118 c 0.022,0.025 0.06,0.05 0.114,0.074 0.005,0.005 0.004,0.018 -0.005,0.039 -0.011,0.023 -0.02,0.034 -0.027,0.03 l -0.723,-0.327 c -0.006,-0.005 -0.005,-0.016 0.003,-0.033 0.012,-0.028 0.023,-0.039 0.031,-0.034 0.041,0.018 0.075,0.029 0.104,0.034 0.028,0.005 0.051,0.004 0.07,-0.003 0.035,-0.015 0.071,-0.066 0.11,-0.15 l 0.004,-0.01 c 0.079,-0.174 0.108,-0.322 0.086,-0.442 -0.02,-0.119 -0.062,-0.209 -0.124,-0.267 -0.063,-0.059 -0.125,-0.102 -0.187,-0.13 -0.064,-0.029 -0.14,-0.048 -0.228,-0.055 -0.087,-0.008 -0.184,0.021 -0.289,0.086 -0.105,0.066 -0.2,0.191 -0.283,0.374 l -0.332,0.734 0.713,0.322 c 0.095,0.043 0.189,0.068 0.282,0.075 0.092,0.009 0.176,0.003 0.252,-0.015 0.075,-0.018 0.131,-0.041 0.166,-0.069 l 0.28,0.414 c -0.066,0.019 -0.14,0.021 -0.222,0.006 -0.081,-0.014 -0.135,-0.024 -0.161,-0.031 -0.046,-0.011 -0.09,-0.026 -0.133,-0.046 -0.004,-0.001 -0.059,-0.022 -0.165,-0.064 -0.021,-0.008 -0.052,-0.021 -0.092,-0.039 l -0.971,-0.439 -0.186,0.411 c -0.036,0.08 -0.04,0.149 -0.01,0.206 0.03,0.057 0.082,0.103 0.158,0.137 0.008,0.007 0.009,0.019 10e-4,0.038 -0.01,0.02 -0.019,0.029 -0.026,0.025 l -0.844,-0.381 c -0.008,-0.005 -0.008,-0.017 10e-4,-0.036 0.009,-0.022 0.019,-0.03 0.028,-0.026 0.092,0.042 0.165,0.055 0.217,0.037 0.052,-0.018 0.097,-0.068 0.135,-0.153 l 0.583,-1.289 c 0.056,-0.124 0.14,-0.228 0.251,-0.316 0.111,-0.086 0.246,-0.136 0.406,-0.148 0.159,-0.012 0.333,0.026 0.524,0.112 0.144,0.065 0.261,0.143 0.351,0.234 0.09,0.092 0.154,0.187 0.191,0.287 0.037,0.1 0.053,0.197 0.049,0.291 -0.003,0.049 -0.009,0.098 -0.02,0.144 -0.012,0.045 -0.027,0.089 -0.046,0.131 l -0.02,0.045 c -0.027,0.059 -0.042,0.105 -0.046,0.138 -0.002,0.034 0.008,0.06 0.03,0.079 m -2.229,-1.748 -0.671,1.047 c -0.1,0.157 -0.216,0.27 -0.346,0.341 -0.131,0.07 -0.265,0.106 -0.403,0.105 -0.138,0.001 -0.276,-0.026 -0.413,-0.078 -0.072,-0.026 -0.14,-0.055 -0.204,-0.088 -0.065,-0.032 -0.131,-0.07 -0.198,-0.113 -0.212,-0.136 -0.368,-0.295 -0.471,-0.478 -0.103,-0.182 -0.151,-0.365 -0.146,-0.55 0.006,-0.184 0.058,-0.352 0.155,-0.504 0.135,-0.211 0.323,-0.344 0.563,-0.398 l -0.043,0.502 c -0.12,0.037 -0.223,0.123 -0.309,0.258 -0.101,0.155 -0.139,0.324 -0.117,0.504 0.022,0.181 0.122,0.328 0.299,0.441 l 0.927,-1.445 0.322,0.202 -0.932,1.454 c 0.058,0.037 0.14,0.067 0.244,0.09 0.105,0.023 0.223,0.008 0.355,-0.044 0.132,-0.053 0.256,-0.17 0.372,-0.351 l 0.705,-1.099 c 0.041,-0.064 0.045,-0.131 0.011,-0.201 -0.033,-0.07 -0.089,-0.13 -0.165,-0.179 -0.008,-0.006 -0.006,-0.018 0.006,-0.037 0.012,-0.019 0.022,-0.026 0.028,-0.022 l 0.873,0.56 c 0.006,0.003 0.003,0.016 -0.011,0.037 -0.011,0.017 -0.02,0.024 -0.026,0.02 -0.038,-0.024 -0.077,-0.042 -0.115,-0.054 -0.039,-0.012 -0.077,-0.018 -0.115,-0.018 -0.076,0.002 -0.134,0.035 -0.175,0.098 m -4.103,-2.597 0.624,0.596 c 0.003,0.006 -0.003,0.019 -0.02,0.037 -0.018,0.019 -0.03,0.026 -0.035,0.02 -0.021,-0.019 -0.042,-0.036 -0.065,-0.051 -0.023,-0.015 -0.042,-0.027 -0.058,-0.035 -0.037,-0.015 -0.073,-0.016 -0.106,-0.003 -0.033,0.012 -0.073,0.042 -0.118,0.089 l -0.138,0.146 c -0.041,0.043 -0.082,0.079 -0.122,0.109 -0.041,0.029 -0.084,0.056 -0.13,0.079 -0.091,0.046 -0.188,0.07 -0.29,0.071 -0.103,0.002 -0.21,-0.022 -0.323,-0.072 -0.112,-0.051 -0.228,-0.132 -0.346,-0.244 -0.08,-0.077 -0.137,-0.152 -0.173,-0.228 -0.036,-0.076 -0.06,-0.146 -0.073,-0.21 l -0.019,-0.099 c -0.002,10e-4 -0.005,0 -0.007,10e-4 -0.003,0 -0.005,10e-4 -0.007,0.003 l -0.306,0.321 c -0.06,0.064 -0.086,0.127 -0.077,0.191 0.009,0.064 0.044,0.124 0.103,0.181 0.007,0.01 0.003,0.022 -0.012,0.037 -0.015,0.016 -0.026,0.021 -0.032,0.015 l -0.67,-0.639 c -0.006,-0.007 -0.002,-0.019 0.012,-0.034 0.017,-0.017 0.028,-0.022 0.035,-0.015 0.074,0.07 0.138,0.106 0.193,0.106 0.055,0.001 0.114,-0.032 0.179,-0.099 l 1.288,-1.351 c 0.064,-0.068 0.092,-0.132 0.083,-0.192 -0.009,-0.06 -0.052,-0.127 -0.129,-0.2 -0.004,-0.007 0.001,-0.017 0.015,-0.032 0.016,-0.017 0.026,-0.023 0.032,-0.018 l 0.712,0.68 c 0.006,0.004 0.001,0.015 -0.014,0.03 -0.017,0.018 -0.029,0.023 -0.036,0.016 -0.061,-0.057 -0.126,-0.093 -0.196,-0.105 -0.071,-0.012 -0.137,0.014 -0.197,0.077 l -0.789,0.827 c -0.064,0.068 -0.077,0.164 -0.038,0.289 0.038,0.123 0.11,0.236 0.217,0.338 0.022,0.015 0.048,0.033 0.081,0.054 0.032,0.02 0.052,0.033 0.061,0.038 0.039,0.022 0.096,0.04 0.17,0.052 0.073,0.012 0.159,-0.001 0.256,-0.038 0.097,-0.037 0.199,-0.112 0.305,-0.223 l 0.113,-0.118 c 0.064,-0.068 0.094,-0.126 0.09,-0.175 -0.002,-0.049 -0.036,-0.104 -0.098,-0.164 -0.004,-0.007 0.004,-0.021 0.023,-0.041 0.016,-0.016 0.026,-0.021 0.032,-0.017 m -2.139,-2.633 c -0.127,0.016 -0.265,0.089 -0.416,0.22 l -1.034,0.895 -0.154,-0.178 c -0.061,-0.07 -0.147,-0.125 -0.258,-0.166 -0.111,-0.042 -0.217,-0.063 -0.319,-0.063 -0.102,-10e-4 -0.173,0.015 -0.212,0.049 l -10e-4,-0.483 c 0.126,-0.004 0.251,0.036 0.377,0.119 0.066,0.045 0.121,0.083 0.164,0.116 0.043,0.033 0.08,0.063 0.111,0.095 l 0.132,0.152 0.982,-0.851 c 0.102,-0.088 0.221,-0.148 0.358,-0.177 0.136,-0.032 0.279,-0.019 0.429,0.035 0.151,0.055 0.294,0.161 0.431,0.319 0.104,0.119 0.179,0.241 0.226,0.365 0.048,0.123 0.068,0.238 0.064,0.344 -0.004,0.106 -0.029,0.204 -0.075,0.295 -0.045,0.089 -0.105,0.167 -0.179,0.231 l -0.139,0.12 c -0.048,0.042 -0.079,0.078 -0.093,0.109 -0.015,0.031 -0.016,0.061 -0.006,0.09 0.012,0.036 0.037,0.077 0.074,0.119 0.003,0.008 -0.003,0.018 -0.019,0.032 -0.017,0.014 -0.028,0.019 -0.033,0.013 l -0.557,-0.643 c -0.003,-0.007 10e-4,-0.016 0.014,-0.027 0.02,-0.018 0.034,-0.022 0.04,-0.015 0.03,0.034 0.058,0.06 0.085,0.078 0.027,0.018 0.051,0.029 0.073,0.034 0.043,0.008 0.099,-0.018 0.169,-0.078 l 0.153,-0.133 c 0.136,-0.117 0.215,-0.235 0.238,-0.351 0.023,-0.117 0.016,-0.216 -0.02,-0.298 -0.037,-0.081 -0.077,-0.148 -0.121,-0.198 -0.037,-0.044 -0.096,-0.088 -0.176,-0.13 -0.079,-0.042 -0.182,-0.056 -0.308,-0.039 m -2.783,-0.364 c 0.002,0.056 0.032,0.131 0.092,0.223 0.004,0.009 -0.003,0.02 -0.022,0.032 -0.018,0.011 -0.031,0.013 -0.036,0.005 l -0.531,-0.828 c -0.002,-0.008 0.004,-0.017 0.019,-0.026 0.021,-0.014 0.035,-0.017 0.04,-0.008 0.061,0.095 0.117,0.154 0.168,0.177 0.05,0.022 0.112,0.009 0.187,-0.04 l 0.756,-0.484 c 0.019,0.012 0.051,0.024 0.095,0.036 0.044,0.013 0.104,0.016 0.179,0.008 0.075,-0.008 0.157,-0.04 0.244,-0.096 0.045,-0.029 0.088,-0.062 0.128,-0.1 0.041,-0.037 0.079,-0.079 0.116,-0.125 0.08,-0.098 0.117,-0.22 0.11,-0.366 -0.007,-0.145 -0.053,-0.286 -0.14,-0.421 -0.224,-0.35 -0.533,-0.399 -0.925,-0.147 l -1.169,0.75 c -0.075,0.048 -0.114,0.099 -0.115,0.154 10e-4,0.057 0.031,0.131 0.09,0.223 0.004,0.008 -0.004,0.02 -0.025,0.033 -0.016,0.011 -0.027,0.013 -0.031,0.007 l -0.531,-0.828 c -0.002,-0.008 0.005,-0.018 0.022,-0.028 0.02,-0.013 0.032,-0.016 0.036,-0.01 0.06,0.095 0.115,0.154 0.164,0.175 0.05,0.022 0.113,0.009 0.189,-0.04 l 1.207,-0.774 c 0.043,-0.028 0.088,-0.051 0.136,-0.07 0.047,-0.018 0.097,-0.033 0.148,-0.044 0.105,-0.019 0.211,-0.015 0.319,0.01 0.108,0.026 0.216,0.08 0.322,0.163 0.106,0.083 0.203,0.193 0.292,0.331 0.048,0.075 0.084,0.162 0.108,0.26 0.025,0.097 0.038,0.172 0.042,0.22 0.068,0.107 0.15,0.199 0.243,0.275 0.094,0.076 0.189,0.101 0.287,0.075 l 0.019,0.512 c -0.16,-0.052 -0.326,-0.213 -0.5,-0.483 l -0.092,-0.143 c -0.005,0.058 -0.029,0.121 -0.071,0.187 -0.042,0.067 -0.086,0.124 -0.134,0.172 -0.028,0.028 -0.051,0.049 -0.07,0.066 -0.019,0.017 -0.036,0.03 -0.051,0.04 l -1.201,0.77 c -0.077,0.049 -0.115,0.102 -0.114,0.157 m -1.498,-3.07 c -0.152,0.069 -0.19,0.188 -0.114,0.356 10e-4,0.008 -0.009,0.017 -0.03,0.026 -0.01,0.005 -0.017,0.008 -0.022,0.008 -0.005,0 -0.008,-0.001 -0.008,-0.002 l -0.383,-0.846 c -0.002,-0.009 0.006,-0.018 0.025,-0.026 0.021,-0.01 0.034,-0.01 0.037,-0.003 0.042,0.093 0.089,0.151 0.139,0.173 0.051,0.022 0.119,0.013 0.203,-0.025 l 1.049,-0.474 c 0.097,-0.043 0.146,-0.13 0.149,-0.259 0.003,-0.129 -0.024,-0.258 -0.082,-0.386 L -44.12,8.03 c -0.031,-0.035 -0.079,-0.071 -0.144,-0.108 -0.066,-0.036 -0.152,-0.054 -0.257,-0.054 -0.056,0 -0.115,0.008 -0.173,0.024 -0.058,0.015 -0.124,0.04 -0.197,0.073 l -0.097,0.043 c -0.153,0.07 -0.191,0.188 -0.115,0.357 0.001,0.008 -0.01,0.017 -0.032,0.027 -0.007,0.003 -0.012,0.004 -0.017,0.004 h -0.012 l -0.383,-0.848 c -0.003,-0.006 0.005,-0.014 0.024,-0.023 0.022,-0.01 0.035,-0.012 0.038,-0.005 0.044,0.096 0.089,0.155 0.138,0.177 0.049,0.021 0.117,0.012 0.205,-0.028 l 0.143,-0.064 c 0.125,-0.057 0.257,-0.083 0.395,-0.078 0.139,0.005 0.271,0.053 0.394,0.142 0.125,0.089 0.23,0.229 0.315,0.418 0.048,0.106 0.075,0.202 0.081,0.288 0.005,0.086 0.003,0.16 -0.009,0.222 l -0.017,0.101 0.693,-0.313 0.084,0.188 c 0.033,0.072 0.074,0.138 0.121,0.198 0.056,0.067 0.104,0.117 0.144,0.15 0.048,0.037 0.096,0.065 0.144,0.086 0.048,0.021 0.09,0.034 0.124,0.035 l -0.063,0.496 C -42.747,9.462 -42.902,9.25 -43.059,8.904 l -0.056,-0.125 z m -0.539,-2.699 c -0.042,-0.072 -0.069,-0.119 -0.08,-0.143 -0.021,-0.043 -0.038,-0.087 -0.051,-0.132 -10e-4,-0.003 -0.02,-0.059 -0.057,-0.167 -0.008,-0.021 -0.018,-0.053 -0.03,-0.096 l -0.291,-1.025 -0.434,0.123 c -0.085,0.024 -0.139,0.066 -0.164,0.125 -0.024,0.06 -0.025,0.13 -0.002,0.209 0,0.012 -0.009,0.02 -0.029,0.026 -0.022,0.006 -0.034,0.005 -0.036,-0.004 l -0.253,-0.89 c -10e-4,-0.01 0.008,-0.017 0.028,-0.023 0.023,-0.007 0.035,-0.005 0.038,0.005 0.028,0.097 0.065,0.161 0.111,0.189 0.047,0.029 0.115,0.031 0.205,0.005 l 1.361,-0.386 c 0.131,-0.037 0.264,-0.041 0.403,-0.013 0.138,0.03 0.262,0.101 0.375,0.215 0.111,0.114 0.195,0.271 0.252,0.473 0.043,0.152 0.059,0.291 0.048,0.419 -0.012,0.128 -0.043,0.239 -0.096,0.331 -0.053,0.093 -0.116,0.167 -0.19,0.225 -0.04,0.03 -0.082,0.056 -0.124,0.077 -0.042,0.021 -0.085,0.038 -0.129,0.05 l -0.048,0.014 c -0.062,0.017 -0.107,0.035 -0.135,0.054 -0.027,0.02 -0.04,0.045 -0.041,0.074 -0.005,0.033 10e-4,0.078 0.017,0.134 0,0.008 -0.011,0.015 -0.033,0.021 -0.025,0.008 -0.038,0.007 -0.04,0 l -0.217,-0.764 c 0,-0.008 0.009,-0.014 0.027,-0.019 0.029,-0.009 0.044,-0.008 0.047,0.002 0.012,0.043 0.026,0.077 0.041,0.101 0.014,0.025 0.03,0.042 0.046,0.051 0.035,0.018 0.097,0.013 0.186,-0.012 l 0.011,-0.003 c 0.184,-0.052 0.315,-0.125 0.393,-0.219 0.078,-0.094 0.119,-0.182 0.124,-0.268 0.005,-0.086 -0.003,-0.162 -0.021,-0.227 -0.02,-0.068 -0.054,-0.137 -0.105,-0.209 -0.051,-0.072 -0.135,-0.127 -0.253,-0.165 -0.118,-0.039 -0.274,-0.03 -0.468,0.024 l -0.774,0.221 0.213,0.752 c 0.029,0.1 0.07,0.188 0.124,0.264 0.054,0.076 0.112,0.136 0.174,0.183 0.063,0.046 0.117,0.073 0.161,0.082 l -0.136,0.48 c -0.057,-0.037 -0.107,-0.092 -0.148,-0.164 m -1.37,-2.98 c -0.082,-0.062 -0.153,-0.15 -0.213,-0.262 -0.06,-0.113 -0.099,-0.248 -0.12,-0.407 -0.02,-0.156 -0.015,-0.297 0.015,-0.421 0.03,-0.124 0.078,-0.229 0.144,-0.314 0.066,-0.084 0.143,-0.15 0.231,-0.198 0.088,-0.048 0.184,-0.078 0.288,-0.091 l 1.386,-0.176 c 0.093,-0.012 0.154,-0.044 0.185,-0.096 0.031,-0.053 0.039,-0.132 0.026,-0.237 10e-4,-0.008 0.011,-0.013 0.031,-0.015 0.024,-0.003 0.035,-0.001 0.036,0.006 l 0.124,0.976 c 0.001,0.008 -0.009,0.013 -0.029,0.016 -0.025,0.002 -0.037,-10e-4 -0.039,-0.01 -0.01,-0.084 -0.039,-0.153 -0.086,-0.206 -0.046,-0.054 -0.113,-0.076 -0.201,-0.065 l -1.34,0.171 c -0.2,0.025 -0.348,0.079 -0.442,0.16 -0.095,0.082 -0.152,0.166 -0.171,0.253 -0.018,0.087 -0.023,0.164 -0.014,0.233 0.008,0.061 0.031,0.131 0.071,0.209 0.04,0.077 0.117,0.145 0.23,0.201 0.113,0.056 0.269,0.073 0.466,0.048 l 0.12,-0.015 c 0.092,-0.012 0.152,-0.039 0.181,-0.08 0.028,-0.039 0.037,-0.102 0.026,-0.188 0.002,-0.008 0.016,-0.014 0.044,-0.018 0.023,-0.002 0.034,0 0.035,0.008 l 0.109,0.855 c -0.002,0.008 -0.014,0.013 -0.039,0.016 -0.026,0.004 -0.039,10e-4 -0.04,-0.006 -0.004,-0.028 -0.01,-0.055 -0.018,-0.081 -0.009,-0.025 -0.016,-0.046 -0.023,-0.063 -0.02,-0.035 -0.046,-0.059 -0.08,-0.069 -0.034,-0.013 -0.083,-0.014 -0.148,-0.006 l -0.166,0.022 c -0.102,0.012 -0.203,0.006 -0.304,-0.018 -0.102,-0.026 -0.193,-0.07 -0.275,-0.132 m -0.244,-4.142 c -0.088,0.003 -0.152,0.029 -0.19,0.081 -0.039,0.052 -0.057,0.119 -0.054,0.202 -0.003,0.011 -0.014,0.017 -0.035,0.017 -0.022,0 -0.034,-0.003 -0.034,-0.012 l -0.023,-0.925 c 10e-4,-0.01 0.012,-0.016 0.033,-0.016 0.023,-0.001 0.035,0.004 0.035,0.014 0.003,0.102 0.023,0.172 0.061,0.211 0.039,0.04 0.104,0.059 0.197,0.056 l 1.415,-0.036 c 0.135,-0.003 0.265,0.026 0.392,0.088 0.127,0.063 0.23,0.163 0.31,0.302 0.08,0.138 0.122,0.312 0.127,0.52 0.004,0.158 -0.015,0.298 -0.058,0.419 -0.043,0.121 -0.101,0.22 -0.175,0.296 -0.074,0.077 -0.154,0.133 -0.24,0.17 -0.046,0.02 -0.093,0.035 -0.139,0.045 -0.046,0.01 -0.092,0.015 -0.138,0.016 l -0.05,10e-4 c -0.064,0.002 -0.112,0.008 -0.144,0.019 -0.031,0.013 -0.05,0.034 -0.058,0.061 -0.013,0.032 -0.018,0.077 -0.017,0.135 -0.002,0.008 -0.014,0.012 -0.037,0.012 -0.026,0.001 -0.038,-0.002 -0.039,-0.01 l -0.02,-0.794 c 0.002,-0.007 0.012,-0.011 0.031,-0.011 0.03,-0.001 0.045,0.003 0.045,0.013 10e-4,0.045 0.006,0.08 0.014,0.108 0.008,0.027 0.019,0.048 0.033,0.062 0.029,0.025 0.09,0.036 0.182,0.033 h 0.012 c 0.191,-0.005 0.336,-0.043 0.435,-0.114 0.099,-0.071 0.161,-0.147 0.187,-0.229 0.026,-0.081 0.038,-0.157 0.036,-0.225 -0.002,-0.07 -0.018,-0.146 -0.05,-0.229 -0.031,-0.081 -0.099,-0.156 -0.203,-0.223 -0.105,-0.066 -0.259,-0.097 -0.46,-0.092 l -0.805,0.021 0.02,0.782 c 0.003,0.104 0.021,0.199 0.054,0.286 0.033,0.087 0.074,0.16 0.123,0.221 0.05,0.06 0.095,0.1 0.135,0.12 l -0.25,0.431 c -0.047,-0.051 -0.081,-0.116 -0.103,-0.196 -0.023,-0.08 -0.037,-0.133 -0.042,-0.159 -0.01,-0.046 -0.016,-0.093 -0.017,-0.14 0,-0.004 -0.005,-0.063 -0.014,-0.177 -0.002,-0.021 -0.003,-0.055 -0.004,-0.1 l -0.027,-1.065 z m 1.157,-7.68 -0.064,-0.025 0.39,-0.998 0.064,0.025 -0.03,0.076 c -0.037,0.095 -0.04,0.173 -0.009,0.236 0.023,0.047 0.107,0.098 0.251,0.154 l 0.587,0.23 1.11,-0.216 c 0.142,-0.027 0.247,-0.054 0.314,-0.081 0.067,-0.028 0.124,-0.065 0.172,-0.11 0.048,-0.047 0.078,-0.086 0.09,-0.117 l 0.018,-0.045 0.032,0.013 c -0.001,10e-4 -0.001,10e-4 -0.001,0.002 l -0.04,0.08 0.038,0.019 -0.285,0.728 -0.064,-0.025 c 0.024,-0.06 0.034,-0.11 0.033,-0.148 -0.002,-0.038 -0.013,-0.071 -0.033,-0.097 -0.02,-0.027 -0.044,-0.046 -0.074,-0.057 -0.055,-0.021 -0.148,-0.018 -0.282,0.009 l -0.902,0.176 0.564,0.784 c 0.08,0.113 0.141,0.177 0.183,0.193 0.051,0.021 0.098,0.013 0.141,-0.023 0.043,-0.035 0.075,-0.08 0.096,-0.135 l 0.02,-0.051 0.063,0.025 -0.391,1.001 -0.064,-0.025 c 0.016,-0.041 0.023,-0.077 0.022,-0.107 -0.008,-0.101 -0.021,-0.171 -0.038,-0.208 -0.023,-0.044 -0.074,-0.124 -0.155,-0.24 l -0.73,-1.025 -0.554,-0.218 c -0.065,-0.025 -0.12,-0.042 -0.166,-0.052 -0.046,-0.01 -0.079,-0.013 -0.102,-0.008 -0.076,0.019 -0.133,0.078 -0.172,0.177 z m 2.957,-0.846 -0.032,-0.012 c 0.045,-0.092 0.056,-0.168 0.033,-0.231 -0.018,-0.045 -0.098,-0.103 -0.242,-0.175 l -1.46,-0.733 c -0.11,-0.054 -0.186,-0.084 -0.228,-0.089 -0.043,-0.005 -0.081,0.006 -0.116,0.032 -0.048,0.034 -0.086,0.078 -0.113,0.132 l -0.04,0.08 -0.061,-0.031 0.868,-1.732 0.661,0.088 -0.033,0.067 c -0.176,0.002 -0.315,0.02 -0.416,0.055 -0.08,0.028 -0.144,0.066 -0.19,0.114 -0.044,0.047 -0.099,0.135 -0.163,0.261 l -0.19,0.381 c -0.032,0.062 -0.046,0.108 -0.044,0.137 0.002,0.029 0.011,0.053 0.027,0.071 0.016,0.019 0.075,0.054 0.175,0.104 l 0.74,0.371 0.247,-0.493 c 0.047,-0.093 0.07,-0.167 0.071,-0.224 0.001,-0.057 -0.013,-0.105 -0.042,-0.144 -0.022,-0.031 -0.085,-0.082 -0.188,-0.153 l 0.03,-0.061 0.785,0.393 -0.031,0.061 c -0.063,-0.031 -0.121,-0.05 -0.174,-0.055 -0.054,-0.005 -0.101,0 -0.143,0.017 -0.06,0.024 -0.122,0.099 -0.186,0.227 l -0.247,0.493 0.89,0.446 0.308,-0.615 c 0.057,-0.113 0.087,-0.196 0.093,-0.247 0.002,-0.068 -0.011,-0.127 -0.04,-0.174 -0.027,-0.05 -0.096,-0.117 -0.205,-0.2 l 0.033,-0.064 0.48,0.271 -0.869,1.732 -0.023,-0.011 z m -1.12,-3.028 -0.058,-0.037 0.578,-0.907 0.058,0.037 -0.053,0.083 c -0.05,0.079 -0.065,0.153 -0.045,0.221 0.014,0.05 0.088,0.118 0.222,0.203 l 0.617,0.393 c 0.009,-0.014 0.016,-0.025 0.02,-0.032 l 0.011,-0.017 0.028,-0.044 0.083,-0.129 -0.535,-1.353 0.36,-0.565 0.058,0.037 c -0.06,0.127 -0.091,0.238 -0.09,0.336 0,0.103 0.039,0.248 0.115,0.436 l 0.328,0.826 c 0.155,-0.154 0.307,-0.243 0.456,-0.267 0.149,-0.024 0.289,0.006 0.419,0.089 0.122,0.078 0.204,0.182 0.245,0.313 0.041,0.131 0.044,0.259 0.009,0.385 -0.034,0.127 -0.125,0.304 -0.27,0.532 l -0.493,0.773 -0.058,-0.037 0.051,-0.079 c 0.051,-0.08 0.066,-0.155 0.046,-0.225 -0.013,-0.05 -0.087,-0.117 -0.22,-0.202 l -1.37,-0.873 c -0.123,-0.077 -0.206,-0.115 -0.251,-0.113 -0.083,10e-4 -0.153,0.047 -0.21,0.136 z m 1.418,0.056 0.882,0.562 c 0.085,-0.09 0.148,-0.166 0.187,-0.228 0.088,-0.138 0.117,-0.274 0.086,-0.411 -0.031,-0.135 -0.112,-0.245 -0.243,-0.329 -0.136,-0.086 -0.281,-0.105 -0.435,-0.058 -0.154,0.048 -0.295,0.172 -0.424,0.374 l -0.023,0.036 z m -0.02,-2.173 -0.052,-0.045 1.263,-1.47 0.62,0.246 -0.049,0.056 c -0.171,-0.04 -0.31,-0.056 -0.416,-0.047 -0.085,0.008 -0.156,0.029 -0.212,0.064 -0.055,0.036 -0.129,0.107 -0.221,0.215 l -0.278,0.323 c -0.045,0.053 -0.07,0.093 -0.075,0.122 -0.006,0.029 -0.003,0.054 0.008,0.076 0.012,0.022 0.06,0.07 0.146,0.143 l 0.627,0.539 0.359,-0.418 c 0.068,-0.079 0.109,-0.145 0.123,-0.201 0.015,-0.055 0.013,-0.105 -0.005,-0.15 -0.014,-0.035 -0.063,-0.1 -0.146,-0.193 l 0.045,-0.052 0.665,0.572 -0.044,0.051 c -0.054,-0.046 -0.105,-0.078 -0.156,-0.096 -0.051,-0.017 -0.098,-0.024 -0.142,-0.018 -0.064,0.009 -0.143,0.067 -0.236,0.176 l -0.359,0.418 0.755,0.648 0.449,-0.522 c 0.082,-0.096 0.131,-0.168 0.149,-0.216 0.019,-0.066 0.02,-0.126 0.004,-0.179 -0.014,-0.056 -0.065,-0.136 -0.15,-0.244 l 0.047,-0.055 0.4,0.38 -1.263,1.47 -0.052,-0.044 0.058,-0.068 c 0.068,-0.078 0.097,-0.151 0.09,-0.218 -0.007,-0.048 -0.071,-0.124 -0.193,-0.229 l -1.239,-1.064 c -0.094,-0.08 -0.16,-0.127 -0.2,-0.142 -0.04,-0.015 -0.08,-0.013 -0.119,0.003 -0.056,0.021 -0.103,0.055 -0.142,0.101 z m 3.166,-0.54 -0.819,-2.216 0.049,-0.047 2.114,0.938 c 0.125,0.055 0.231,0.082 0.318,0.079 0.062,-10e-4 0.13,-0.027 0.205,-0.077 l 0.047,0.049 -0.56,0.536 -0.047,-0.049 0.019,-0.026 c 0.053,-0.072 0.081,-0.131 0.084,-0.178 0.003,-0.047 -0.009,-0.083 -0.033,-0.11 -0.038,-0.039 -0.128,-0.091 -0.27,-0.155 l -1.436,-0.642 0.557,1.509 c 0.05,0.133 0.096,0.222 0.14,0.268 0.03,0.031 0.069,0.046 0.114,0.042 0.045,-0.004 0.113,-0.042 0.204,-0.114 l 0.047,0.05 -0.742,0.711 -0.047,-0.05 c 0.052,-0.06 0.086,-0.111 0.101,-0.156 0.011,-0.025 0.017,-0.049 0.021,-0.073 0.004,-0.023 0.004,-0.047 0.001,-0.07 -0.004,-0.034 -0.026,-0.105 -0.067,-0.219 m -0.106,-2.78 -0.041,-0.054 0.628,-0.482 0.042,0.055 c -0.047,0.036 -0.083,0.069 -0.108,0.1 -0.024,0.031 -0.04,0.061 -0.047,0.088 -0.01,0.046 -0.003,0.084 0.02,0.114 0.028,0.037 0.089,0.081 0.184,0.133 l 0.371,0.214 0.777,-0.595 -0.095,-0.377 c -0.034,-0.123 -0.068,-0.206 -0.101,-0.249 -0.025,-0.033 -0.061,-0.05 -0.106,-0.051 -0.026,0 -0.054,0.006 -0.085,0.02 -0.032,0.012 -0.067,0.034 -0.106,0.063 l -0.042,-0.054 0.788,-0.603 0.042,0.054 c -0.039,0.031 -0.071,0.064 -0.094,0.1 -0.022,0.036 -0.038,0.074 -0.047,0.113 -0.014,0.075 0.001,0.201 0.048,0.377 l 0.576,2.193 -0.051,0.039 -1.961,-1.104 c -0.174,-0.099 -0.303,-0.152 -0.386,-0.16 -0.044,-0.003 -0.113,0.019 -0.206,0.066 m 1.179,0.241 0.968,0.542 -0.28,-1.069 z m 1.018,-1.975 -0.034,-0.059 0.759,-0.439 0.035,0.059 -0.078,0.045 c -0.085,0.048 -0.134,0.107 -0.149,0.176 -0.01,0.051 0.024,0.143 0.101,0.276 l 0.774,1.34 0.424,-2.583 0.057,-0.033 1.06,1.837 c 0.034,0.059 0.066,0.107 0.097,0.144 0.029,0.036 0.053,0.059 0.074,0.07 0.071,0.032 0.153,0.022 0.244,-0.031 l 0.078,-0.044 0.034,0.059 -0.76,0.439 -0.034,-0.059 0.076,-0.044 c 0.086,-0.05 0.136,-0.109 0.149,-0.176 0.011,-0.051 -0.022,-0.143 -0.1,-0.277 l -0.725,-1.255 -0.39,2.399 -0.588,0.343 -0.034,-0.06 c 0.063,-0.037 0.107,-0.069 0.133,-0.096 0.052,-0.06 0.088,-0.11 0.107,-0.152 0.019,-0.042 0.038,-0.117 0.057,-0.225 l -0.874,-1.515 c -0.035,-0.059 -0.067,-0.108 -0.097,-0.144 -0.029,-0.037 -0.054,-0.06 -0.075,-0.07 -0.07,-0.033 -0.152,-0.023 -0.245,0.031 z m 3.646,-1.184 -0.32,-0.8 0.063,-0.025 c 0.03,0.049 0.056,0.079 0.079,0.09 0.026,0.009 0.052,0.008 0.079,-0.002 0.029,-0.012 0.092,-0.059 0.191,-0.139 0.098,-0.082 0.164,-0.132 0.197,-0.15 0.057,-0.035 0.118,-0.066 0.185,-0.092 0.215,-0.087 0.418,-0.092 0.607,-0.019 0.188,0.075 0.318,0.199 0.388,0.373 0.037,0.093 0.05,0.191 0.04,0.294 -0.009,0.104 -0.042,0.202 -0.096,0.296 -0.054,0.093 -0.166,0.241 -0.337,0.446 -0.211,0.252 -0.334,0.435 -0.369,0.547 -0.025,0.08 -0.024,0.154 0.004,0.224 0.037,0.093 0.109,0.16 0.217,0.202 0.107,0.041 0.22,0.039 0.339,-0.009 0.106,-0.043 0.197,-0.11 0.274,-0.205 0.077,-0.094 0.124,-0.197 0.14,-0.308 0.008,-0.058 0.009,-0.121 0.003,-0.191 -0.006,-0.068 -0.02,-0.142 -0.04,-0.223 l 0.064,-0.026 0.323,0.806 -0.064,0.026 c -0.034,-0.051 -0.063,-0.08 -0.09,-0.09 -0.026,-0.009 -0.054,-0.008 -0.083,0.003 -0.012,0.005 -0.03,0.016 -0.051,0.035 -0.021,0.018 -0.044,0.039 -0.067,0.063 -0.112,0.115 -0.232,0.199 -0.358,0.249 -0.199,0.079 -0.386,0.084 -0.564,0.014 -0.177,-0.07 -0.299,-0.188 -0.365,-0.355 -0.039,-0.096 -0.053,-0.193 -0.041,-0.29 0.012,-0.099 0.045,-0.198 0.103,-0.298 0.03,-0.051 0.072,-0.115 0.127,-0.189 0.054,-0.075 0.118,-0.158 0.192,-0.25 0.157,-0.194 0.25,-0.317 0.279,-0.365 0.047,-0.079 0.074,-0.154 0.082,-0.225 0.008,-0.071 0,-0.134 -0.022,-0.19 -0.041,-0.102 -0.119,-0.175 -0.234,-0.218 -0.115,-0.042 -0.243,-0.035 -0.384,0.021 -0.125,0.051 -0.228,0.123 -0.31,0.219 -0.082,0.096 -0.131,0.197 -0.147,0.3 -0.01,0.053 -0.011,0.115 -0.006,0.186 0.006,0.071 0.018,0.151 0.036,0.24 z m 2.037,-1.57 -0.022,-0.065 1.012,-0.339 0.022,0.065 -0.082,0.027 c -0.093,0.031 -0.153,0.079 -0.181,0.143 -0.019,0.048 -0.004,0.145 0.045,0.29 l 0.609,1.82 0.336,-0.113 c 0.096,-0.032 0.17,-0.074 0.221,-0.127 0.051,-0.054 0.083,-0.12 0.096,-0.198 0.01,-0.05 0.004,-0.125 -0.017,-0.227 l 0.067,-0.023 0.16,0.567 -1.947,0.652 -0.216,-0.548 0.067,-0.022 c 0.047,0.105 0.102,0.182 0.163,0.229 0.067,0.048 0.133,0.073 0.199,0.074 0.05,0.002 0.132,-0.016 0.245,-0.054 l 0.287,-0.097 -0.609,-1.819 c -0.022,-0.066 -0.044,-0.12 -0.066,-0.161 -0.021,-0.042 -0.041,-0.069 -0.059,-0.083 -0.064,-0.046 -0.146,-0.053 -0.245,-0.02 z m 1.35,-0.415 -0.015,-0.067 0.771,-0.179 0.016,0.066 c -0.058,0.014 -0.105,0.03 -0.14,0.048 -0.035,0.018 -0.061,0.038 -0.079,0.06 -0.028,0.038 -0.038,0.076 -0.029,0.112 0.011,0.046 0.048,0.112 0.113,0.198 l 0.25,0.347 0.953,-0.222 0.068,-0.383 c 0.02,-0.125 0.024,-0.215 0.012,-0.268 -0.01,-0.04 -0.035,-0.07 -0.077,-0.09 -0.023,-0.011 -0.051,-0.017 -0.085,-0.018 -0.034,0 -0.075,0.005 -0.123,0.016 l -0.016,-0.067 0.967,-0.225 0.015,0.067 c -0.047,0.011 -0.09,0.028 -0.126,0.051 -0.035,0.024 -0.065,0.052 -0.09,0.084 -0.043,0.063 -0.081,0.184 -0.111,0.364 l -0.379,2.235 -0.063,0.014 -1.331,-1.814 c -0.118,-0.161 -0.214,-0.263 -0.286,-0.304 -0.039,-0.022 -0.11,-0.03 -0.215,-0.025 m 0.975,0.705 0.659,0.893 0.185,-1.09 z m 1.595,0.637 0.07,-0.009 c 0.025,0.113 0.063,0.199 0.113,0.257 0.056,0.062 0.116,0.099 0.18,0.114 0.049,0.011 0.133,0.01 0.252,-0.005 l 0.3,-0.037 -0.232,-1.905 c -0.008,-0.068 -0.019,-0.125 -0.032,-0.17 -0.013,-0.045 -0.026,-0.076 -0.041,-0.094 -0.053,-0.058 -0.133,-0.08 -0.237,-0.068 l -0.088,0.011 -0.009,-0.068 1.06,-0.129 0.008,0.068 -0.086,0.011 c -0.097,0.011 -0.166,0.045 -0.206,0.103 -0.028,0.043 -0.033,0.141 -0.014,0.294 l 0.231,1.904 0.352,-0.042 c 0.101,-0.013 0.182,-0.04 0.242,-0.082 0.062,-0.042 0.106,-0.1 0.135,-0.174 0.019,-0.047 0.028,-0.122 0.028,-0.226 l 0.07,-0.009 0.044,0.588 -2.039,0.249 z m 2.229,-2.085 -0.002,-0.068 1.937,-0.06 0.236,0.624 -0.075,0.002 c -0.085,-0.153 -0.167,-0.267 -0.245,-0.339 -0.064,-0.058 -0.127,-0.095 -0.191,-0.113 -0.063,-0.017 -0.166,-0.024 -0.307,-0.019 l -0.426,0.014 c -0.07,0.001 -0.116,0.01 -0.142,0.026 -0.024,0.016 -0.041,0.035 -0.05,0.058 -0.008,0.023 -0.01,0.09 -0.007,0.203 l 0.025,0.827 0.551,-0.017 c 0.104,-0.003 0.181,-0.018 0.231,-0.044 0.051,-0.027 0.087,-0.062 0.107,-0.106 0.016,-0.034 0.032,-0.113 0.045,-0.238 l 0.068,-0.002 0.027,0.877 -0.068,0.002 c -0.002,-0.07 -0.014,-0.13 -0.034,-0.179 -0.021,-0.05 -0.048,-0.089 -0.083,-0.118 -0.049,-0.041 -0.146,-0.06 -0.289,-0.056 l -0.55,0.017 0.03,0.995 0.689,-0.021 c 0.125,-0.004 0.212,-0.016 0.26,-0.036 0.061,-0.03 0.107,-0.07 0.135,-0.118 0.031,-0.047 0.056,-0.139 0.078,-0.275 l 0.072,-0.002 -0.01,0.552 -1.937,0.059 -0.002,-0.069 0.089,-0.002 c 0.103,-0.003 0.176,-0.03 0.221,-0.081 0.031,-0.037 0.044,-0.136 0.039,-0.296 l -0.05,-1.633 c -0.004,-0.123 -0.014,-0.204 -0.03,-0.243 -0.016,-0.04 -0.044,-0.068 -0.083,-0.086 -0.053,-0.027 -0.109,-0.039 -0.17,-0.037 z m 3.981,2.62 -1.078,-0.131 0.009,-0.069 0.093,0.012 c 0.096,0.012 0.167,-0.004 0.215,-0.046 0.048,-0.044 0.081,-0.142 0.099,-0.295 l 0.119,-0.977 c 0.036,-0.299 0.081,-0.502 0.134,-0.608 0.081,-0.153 0.196,-0.267 0.348,-0.345 0.15,-0.077 0.363,-0.099 0.637,-0.065 0.25,0.03 0.442,0.105 0.577,0.222 0.133,0.118 0.217,0.248 0.249,0.39 0.033,0.142 0.034,0.339 0.003,0.591 l -0.123,1.013 c -0.018,0.14 -0.016,0.23 0.006,0.271 0.042,0.088 0.113,0.138 0.211,0.15 l 0.093,0.012 -0.008,0.067 v 0 l -0.882,-0.106 0.008,-0.069 0.094,0.011 c 0.094,0.012 0.168,-0.006 0.222,-0.054 0.04,-0.035 0.069,-0.131 0.088,-0.287 l 0.123,-1.011 c 0.032,-0.266 0.031,-0.458 -0.003,-0.576 -0.034,-0.117 -0.112,-0.22 -0.232,-0.305 -0.12,-0.085 -0.262,-0.139 -0.423,-0.158 -0.063,-0.007 -0.122,-0.008 -0.179,-0.003 -0.057,0.006 -0.108,0.016 -0.153,0.032 -0.095,0.034 -0.169,0.084 -0.223,0.146 -0.054,0.064 -0.099,0.158 -0.132,0.283 -0.019,0.067 -0.032,0.125 -0.042,0.176 -0.01,0.051 -0.019,0.103 -0.025,0.155 l -0.133,1.088 c -0.016,0.138 -0.012,0.231 0.013,0.282 0.035,0.07 0.104,0.112 0.208,0.125 l 0.096,0.011 z m 1.584,0.192 v 0 l 10e-4,-0.002 c 0.07,0.02 0.124,0.028 0.161,0.028 0.079,-0.005 0.141,-0.015 0.184,-0.031 0.044,-0.015 0.111,-0.054 0.201,-0.116 l 0.472,-1.684 c 0.019,-0.066 0.031,-0.123 0.036,-0.17 0.006,-0.046 0.005,-0.08 -0.002,-0.102 -0.026,-0.073 -0.091,-0.125 -0.194,-0.153 l -0.084,-0.024 0.018,-0.066 0.845,0.237 -0.018,0.065 -0.087,-0.023 c -0.094,-0.027 -0.171,-0.021 -0.23,0.016 -0.043,0.028 -0.085,0.117 -0.126,0.265 l -0.418,1.489 2.144,-1.501 0.062,0.018 -0.572,2.041 c -0.018,0.067 -0.03,0.123 -0.036,0.171 -0.006,0.046 -0.004,0.08 0.002,0.101 0.027,0.074 0.091,0.126 0.193,0.154 l 0.085,0.024 -0.018,0.066 -0.844,-0.237 0.018,-0.066 0.084,0.024 c 0.097,0.027 0.174,0.022 0.231,-0.016 0.044,-0.028 0.086,-0.116 0.128,-0.265 l 0.391,-1.395 -1.989,1.397 -0.656,-0.182 z m 2.957,0.928 c 0.055,0.022 0.113,0.03 0.175,0.022 0.045,-0.008 0.079,-0.023 0.1,-0.046 0.03,-0.032 0.069,-0.108 0.116,-0.226 l 0.599,-1.51 c 0.056,-0.141 0.077,-0.234 0.064,-0.281 -0.023,-0.074 -0.082,-0.131 -0.178,-0.169 l -0.082,-0.032 0.025,-0.064 1.002,0.398 -0.025,0.063 -0.084,-0.033 c -0.056,-0.023 -0.114,-0.03 -0.173,-0.021 -0.047,0.008 -0.081,0.023 -0.102,0.045 -0.029,0.032 -0.068,0.108 -0.115,0.226 l -0.599,1.51 c -0.056,0.139 -0.077,0.233 -0.063,0.282 0.023,0.075 0.081,0.13 0.175,0.167 l 0.003,0.002 -0.025,0.049 0.083,0.042 -0.002,0.005 -1.003,-0.398 0.026,-0.064 z m 0.919,0.365 -0.081,-0.032 0.005,-0.012 c 0.075,0.028 0.135,0.043 0.182,0.043 0.027,10e-4 0.052,0 0.075,-0.005 0.023,-0.004 0.045,-0.012 0.067,-0.023 0.03,-0.014 0.091,-0.06 0.183,-0.136 l 1.814,-1.516 0.061,0.031 -0.175,2.306 c -0.011,0.137 0,0.245 0.032,0.327 0.022,0.058 0.069,0.113 0.142,0.166 l -0.005,0.01 -0.046,-0.034 -0.039,0.056 -0.634,-0.318 0.031,-0.061 0.031,0.009 c 0.085,0.026 0.15,0.032 0.195,0.02 0.046,-0.014 0.076,-0.037 0.092,-0.068 0.025,-0.049 0.043,-0.151 0.056,-0.306 l 0.123,-1.569 -1.235,1.031 c -0.107,0.092 -0.176,0.165 -0.204,0.222 -0.02,0.039 -0.021,0.08 -0.002,0.121 0.019,0.042 0.077,0.092 0.175,0.154 l -0.031,0.062 -0.835,-0.419 z m 2.275,1.21 0.025,-0.051 0.027,0.019 c 0.084,0.059 0.159,0.082 0.225,0.069 0.047,-0.011 0.117,-0.082 0.21,-0.213 l 0.945,-1.332 c 0.072,-0.1 0.113,-0.171 0.124,-0.212 0.011,-0.041 0.006,-0.081 -0.015,-0.118 -0.026,-0.054 -0.064,-0.098 -0.113,-0.133 l -0.073,-0.052 0.04,-0.056 1.58,1.123 -0.188,0.639 -0.061,-0.043 c 0.024,-0.174 0.028,-0.313 0.01,-0.419 -0.017,-0.084 -0.044,-0.152 -0.085,-0.205 -0.04,-0.051 -0.118,-0.119 -0.233,-0.201 l -0.348,-0.247 c -0.057,-0.039 -0.099,-0.06 -0.128,-0.063 -0.03,-0.003 -0.054,0.003 -0.075,0.016 -0.021,0.013 -0.064,0.065 -0.129,0.157 l -0.479,0.675 0.45,0.319 c 0.084,0.06 0.155,0.095 0.211,0.104 0.056,0.01 0.105,0.003 0.148,-0.019 0.034,-0.018 0.094,-0.072 0.18,-0.163 l 0.056,0.039 -0.509,0.716 -0.055,-0.04 c 0.041,-0.057 0.067,-0.112 0.081,-0.164 0.013,-0.052 0.015,-0.1 0.005,-0.143 -0.014,-0.063 -0.08,-0.136 -0.197,-0.218 l -0.449,-0.32 -0.576,0.812 0.561,0.398 c 0.103,0.073 0.18,0.116 0.23,0.129 0.067,0.013 0.127,0.008 0.178,-0.012 0.053,-0.02 0.13,-0.078 0.229,-0.172 l 0.059,0.041 -0.341,0.434 -1.581,-1.122 0.001,-0.001 z m 3.315,-0.64 -0.072,-0.061 0.044,-0.052 0.82,0.695 -0.044,0.052 -0.075,-0.064 c -0.071,-0.06 -0.143,-0.085 -0.214,-0.074 -0.051,0.007 -0.127,0.071 -0.23,0.192 l -0.473,0.558 c 0.013,0.012 0.023,0.02 0.028,0.025 l 0.016,0.012 0.039,0.034 0.118,0.1 1.412,-0.347 0.512,0.434 -0.044,0.052 c -0.118,-0.076 -0.225,-0.122 -0.322,-0.135 -0.101,-0.013 -0.25,0.005 -0.447,0.056 l -0.863,0.212 c 0.132,0.175 0.199,0.338 0.202,0.489 0.004,0.15 -0.044,0.285 -0.144,0.403 -0.094,0.11 -0.208,0.177 -0.343,0.2 -0.136,0.023 -0.263,0.008 -0.383,-0.043 -0.121,-0.052 -0.284,-0.165 -0.491,-0.341 l -0.699,-0.593 0.044,-0.051 0.072,0.06 c 0.072,0.062 0.144,0.087 0.217,0.077 0.051,-0.006 0.127,-0.071 0.23,-0.191 l 1.05,-1.24 c 0.093,-0.11 0.143,-0.188 0.147,-0.233 0.01,-0.082 -0.026,-0.157 -0.107,-0.226 m -0.271,1.373 -0.049,-0.037 -0.676,0.798 c 0.077,0.096 0.144,0.169 0.2,0.216 0.125,0.106 0.256,0.153 0.395,0.141 0.139,-0.013 0.259,-0.078 0.359,-0.197 0.104,-0.122 0.143,-0.263 0.117,-0.423 -0.027,-0.158 -0.131,-0.316 -0.313,-0.47 z m 1.719,0.862 0.622,-0.596 0.047,0.049 c -0.035,0.046 -0.053,0.082 -0.054,0.107 0.001,0.028 0.011,0.052 0.031,0.072 0.022,0.023 0.089,0.064 0.201,0.125 0.112,0.062 0.183,0.104 0.213,0.127 0.052,0.04 0.104,0.086 0.154,0.138 0.16,0.167 0.241,0.353 0.244,0.555 10e-4,0.203 -0.065,0.369 -0.202,0.5 -0.072,0.069 -0.158,0.118 -0.257,0.147 -0.099,0.03 -0.202,0.036 -0.31,0.022 -0.107,-0.016 -0.286,-0.065 -0.539,-0.146 -0.313,-0.101 -0.529,-0.148 -0.646,-0.138 -0.083,0.006 -0.152,0.035 -0.206,0.087 -0.072,0.069 -0.108,0.161 -0.107,0.276 0.002,0.116 0.047,0.219 0.136,0.312 0.078,0.082 0.176,0.141 0.292,0.178 0.116,0.036 0.229,0.042 0.338,0.014 0.057,-0.014 0.115,-0.036 0.178,-0.068 0.061,-0.031 0.125,-0.072 0.193,-0.12 l 0.047,0.049 -0.627,0.601 -0.048,-0.05 c 0.035,-0.05 0.051,-0.089 0.05,-0.117 -0.001,-0.028 -0.012,-0.053 -0.034,-0.076 -0.009,-0.009 -0.026,-0.021 -0.051,-0.034 -0.025,-0.013 -0.052,-0.026 -0.084,-0.039 -0.148,-0.061 -0.27,-0.141 -0.364,-0.239 -0.148,-0.154 -0.223,-0.327 -0.224,-0.518 -10e-4,-0.19 0.063,-0.347 0.192,-0.471 0.075,-0.072 0.16,-0.121 0.255,-0.147 0.096,-0.026 0.2,-0.031 0.314,-0.015 0.059,0.008 0.134,0.024 0.223,0.046 0.09,0.023 0.191,0.052 0.304,0.085 0.239,0.074 0.387,0.114 0.443,0.124 0.091,0.014 0.17,0.011 0.239,-0.009 0.069,-0.019 0.124,-0.05 0.168,-0.092 0.08,-0.076 0.118,-0.175 0.114,-0.297 -0.003,-0.123 -0.058,-0.239 -0.163,-0.349 -0.093,-0.098 -0.199,-0.166 -0.318,-0.206 -0.12,-0.04 -0.232,-0.047 -0.333,-0.024 -0.053,0.011 -0.111,0.032 -0.176,0.064 -0.063,0.032 -0.132,0.073 -0.208,0.122 z M -4.875,0 c 0,10.771 -8.732,19.502 -19.502,19.502 -10.771,0 -19.502,-8.731 -19.502,-19.502 0,-10.771 8.731,-19.501 19.502,-19.501 10.77,0 19.502,8.73 19.502,19.501 M -5.26,0 c 0,-10.558 -8.559,-19.117 -19.117,-19.117 -10.559,0 -19.118,8.559 -19.118,19.117 0,10.559 8.559,19.118 19.118,19.118 10.558,0 19.117,-8.559 19.117,-19.118 m -9.133,9.335 4.913,-1.984 -4.437,2.955 -2.294,0.566 -1.253,1.251 -2.354,0.52 -0.907,-0.998 0.946,0.397 2.12,-1.946 1.861,-0.399 1.425,-1.113 z m -11.055,-0.945 5.055,3.496 0.614,0.756 -6.176,-3.611 -3.486,1.944 -3.377,-2.585 2.929,1.512 1.032,-0.877 0.088,0.488 z m -7.199,7.653 c -1.329,-0.687 -2.557,-1.535 -3.668,-2.517 -0.102,-0.957 -0.18,-2.358 0.003,-3.745 0.374,-2.835 0.52,-3.85 -0.595,-6.038 -1.344,-2.636 -2.353,-4.366 -1.089,-6.548 h 0.408 c 0,0 -0.918,1.491 -0.283,3.373 0.635,1.882 3.623,3.884 3.985,6.968 0.331,2.812 -1.041,4.838 1.239,8.507 m -3.937,-9.278 c -0.014,1.99 -0.59,4.177 -0.397,6.156 -0.907,-0.885 -1.724,-1.861 -2.43,-2.92 0.192,-0.864 0.438,-1.917 0.65,-2.669 0.453,-1.61 0.385,-3.788 -0.159,-5.171 -0.544,-1.383 -1.383,-3.129 0,-4.966 h 0.635 c 0,0 -0.884,1.02 -0.59,2.608 0.411,2.21 2.308,4.507 2.291,6.962 m -2.336,-1.86 c 0,1.322 -0.489,3.079 -0.924,4.383 -0.744,-1.236 -1.359,-2.557 -1.792,-3.961 0.594,-0.68 1.242,-1.734 1.242,-3.115 0,-1.474 -0.142,-1.355 -0.142,-2.545 0,-1.54 0.734,-2.281 0.958,-2.472 h 0.346 c 0,0 -0.826,0.591 -0.748,2.517 0.068,1.678 1.06,1.962 1.06,5.193 m 3.6,-8.511 h -6.52 v -1.24 h 6.52 z m -5.892,-2.041 h -0.06 c 0.439,-1.035 1.289,-1.517 1.289,-1.517 h 0.061 2.731 0.061 c 0,0 0.85,0.482 1.29,1.517 h -0.061 z m 3.299,-2.311 h -1.304 v -2.325 c 0.4,-0.578 0.84,-1.125 1.304,-1.651 z m 0.509,-4.529 c 1.691,-1.764 3.727,-3.194 6.013,-4.159 0.558,0.206 1.331,0.457 2.229,0.65 3.526,0.761 4.555,-1.117 4.555,-1.117 v 2.922 c 0,2.529 -2.689,2.48 -2.689,2.48 -1.964,0 -1.989,-0.54 -5.107,-0.859 -1.742,-0.179 -3.648,-0.058 -5.001,0.083 m 10.016,-1.164 0.006,0.099 0.014,0.094 0.024,0.089 0.032,0.083 0.042,0.078 0.049,0.074 0.058,0.067 0.068,0.062 0.075,0.056 0.084,0.048 0.094,0.04 0.102,0.032 0.112,0.026 0.12,0.017 0.129,0.009 0.138,0.002 0.163,-0.003 0.12,-0.113 0.095,-0.114 0.071,-0.113 0.047,-0.114 0.03,-0.115 0.022,-0.113 0.011,-0.114 0.002,-0.113 -0.008,-0.16 -0.023,-0.158 -0.035,-0.154 -0.049,-0.15 -0.057,-0.136 -0.064,-0.126 -0.062,-0.097 -0.084,-0.107 -0.087,-0.095 -0.118,-0.113 -0.327,-0.284 -0.643,-0.132 0.217,0.219 0.19,0.223 0.164,0.228 0.135,0.229 -0.141,0.015 -0.143,0.039 -0.145,0.063 -0.144,0.088 -0.069,0.053 -0.058,0.061 -0.05,0.069 -0.04,0.078 -0.03,0.084 -0.022,0.091 -0.012,0.101 z m -0.88,0.076 -0.261,-0.132 -0.179,-0.083 0.089,0.509 0.421,0.159 0.354,0.147 0.416,0.164 -0.006,-0.05 -0.073,-0.334 -0.106,-0.519 -0.08,-0.428 -0.007,-0.066 -0.008,-0.053 -0.005,-0.046 -0.019,-0.151 -0.012,-0.068 -0.019,-0.06 -0.024,-0.134 -0.057,-0.141 -0.022,-0.056 -0.029,-0.046 -0.036,-0.037 -0.043,-0.028 -0.07,-0.024 -0.12,-0.023 -0.387,-0.044 0.037,0.073 0.032,0.087 0.034,0.141 0.011,0.089 0.077,0.494 0.077,0.537 z m 1.549,0.055 -0.01,-0.1 0.004,-0.085 0.014,-0.082 0.022,-0.081 0.033,-0.078 0.041,-0.075 0.053,-0.074 0.062,-0.071 0.071,-0.068 0.053,0.215 0.018,0.168 -0.002,0.099 -0.01,0.094 -0.018,0.089 -0.027,0.085 -0.034,0.08 -0.043,0.074 -0.05,0.07 -0.059,0.064 -0.054,-0.112 -0.043,-0.106 z m -3.577,-3.526 c 0.486,-0.169 0.982,-0.315 1.487,-0.442 2.534,1.133 3.942,-0.12 4.202,-0.391 v 0.345 c -1.461,1.78 -4.072,1.136 -5.689,0.488 m 2.986,-0.754 c 0.814,-0.134 1.644,-0.217 2.491,-0.237 -0.463,0.383 -1.25,0.669 -2.491,0.237 m 2.093,12.444 h 2.155 v -5.752 c 0.475,0.236 0.942,0.354 1.268,0.411 v 5.341 h 2.154 v -5.492 c 0.411,-0.09 0.824,-0.198 1.269,-0.307 v 5.799 h 2.154 v -6.199 c 0.548,-0.062 1.157,-0.102 1.857,-0.102 1.031,0 1.88,0.062 2.626,0.16 L -11.735,1.52 h -3.549 v 2.709 l -8.43,2.109 h -0.389 -0.389 L -32.922,4.29 V 1.521 h -3.569 v -4.343 h 1.977 v -3.231 h -0.525 c -0.637,-0.966 -1.432,-1.434 -1.452,-1.446 v -0.822 -3.225 c 0.642,-0.068 1.357,-0.111 2.197,-0.111 0.864,0 1.592,0.06 2.232,0.15 v 6.151 h 2.154 v -5.706 c 0.436,0.11 0.849,0.212 1.268,0.289 v 5.417 h 2.155 v -5.423 c 0.38,-0.097 0.839,-0.262 1.268,-0.544 z m 9.816,5.581 h 0.851 l -0.002,-3.838 h -0.847 z m -17.477,0 -0.002,-3.838 h -0.848 l -10e-4,3.838 z m 1.666,0 -0.002,-3.838 h -0.847 l -10e-4,3.838 z m 1.666,1.552 h -0.987 l -0.003,2.004 0.99,0.006 z m 0,-1.552 -0.001,-3.838 h -0.848 l -0.001,3.838 z m 0.816,0 h 0.85 l -0.001,-3.838 h -0.848 z m 2.516,1.554 H -28.73 V 3.78 l 2.516,0.005 z m 0,-1.554 -0.001,-3.838 h -0.848 l -0.001,3.838 z m 9.148,0 h 0.849 l -0.001,-3.838 h -0.848 z m -1.667,0 h 0.85 l -0.001,-3.838 h -0.848 z m 0,3.556 0.99,0.006 v -2.01 h -0.987 z m -1.666,-3.556 h 0.85 l -0.001,-3.838 h -0.848 z m -1.666,0 h 0.85 l -0.002,-3.838 h -0.847 z m 0,3.56 h 2.516 V 1.78 h -2.516 z m -1.666,-3.56 h 0.85 l -0.002,-3.838 h -0.848 z m -0.409,1.552 h -1.258 v 2.009 h 1.258 1.258 V 1.777 Z m -1.257,-5.39 -0.001,3.838 h 0.851 l -0.002,-3.838 z m 1.19,-10.578 v -2.922 c 0,0 1.029,1.878 4.555,1.117 0.914,-0.197 1.699,-0.453 2.258,-0.661 2.301,0.966 4.35,2.402 6.05,4.177 -1.357,-0.144 -3.297,-0.271 -5.067,-0.09 -3.118,0.319 -3.143,0.859 -5.107,0.859 0,0 -2.689,0.049 -2.689,-2.48 m 2.302,0.54 0.007,0.099 0.013,0.094 0.024,0.089 0.033,0.083 0.042,0.078 0.049,0.074 0.057,0.067 0.068,0.062 0.076,0.056 0.083,0.048 0.095,0.04 0.101,0.032 0.112,0.026 0.12,0.017 0.129,0.009 0.139,0.002 0.163,-0.003 0.119,-0.113 0.095,-0.114 0.072,-0.113 0.046,-0.114 0.031,-0.115 0.021,-0.113 0.011,-0.114 0.003,-0.113 -0.009,-0.16 -0.022,-0.158 -0.036,-0.154 -0.049,-0.15 -0.056,-0.136 -0.064,-0.126 -0.063,-0.097 -0.084,-0.107 -0.086,-0.095 -0.119,-0.113 -0.327,-0.284 -0.642,-0.132 0.217,0.219 0.19,0.223 0.163,0.228 0.136,0.229 -0.142,0.015 -0.143,0.039 -0.145,0.063 -0.143,0.088 -0.07,0.053 -0.057,0.061 -0.051,0.069 -0.04,0.078 -0.03,0.084 -0.021,0.091 -0.013,0.101 z m -0.879,0.076 -0.261,-0.132 -0.18,-0.083 0.09,0.509 0.421,0.159 0.354,0.147 0.416,0.164 -0.007,-0.05 -0.072,-0.334 -0.106,-0.519 -0.08,-0.428 -0.008,-0.066 -0.008,-0.053 -0.004,-0.046 -0.019,-0.151 -0.013,-0.068 -0.019,-0.06 -0.023,-0.134 -0.057,-0.141 -0.023,-0.056 -0.028,-0.046 -0.037,-0.037 -0.042,-0.028 -0.07,-0.024 -0.12,-0.023 -0.388,-0.044 0.038,0.073 0.031,0.087 0.034,0.141 0.012,0.089 0.076,0.494 0.078,0.537 z m 1.548,0.055 -0.01,-0.1 0.004,-0.085 0.014,-0.082 0.023,-0.081 0.033,-0.078 0.041,-0.075 0.053,-0.074 0.061,-0.071 0.071,-0.068 0.053,0.215 0.019,0.168 -0.002,0.099 -0.01,0.094 -0.018,0.089 -0.028,0.085 -0.034,0.08 -0.042,0.074 -0.05,0.07 -0.059,0.064 -0.055,-0.112 -0.042,-0.106 z m -2.971,-4.014 v -0.345 c 0.261,0.272 1.676,1.531 4.224,0.381 0.507,0.127 1.005,0.271 1.493,0.44 -1.615,0.652 -4.247,1.314 -5.717,-0.476 m 0.208,-0.506 c 0.855,0.018 1.691,0.101 2.513,0.233 -1.255,0.443 -2.048,0.154 -2.513,-0.233 m 15.416,4.619 1.219,-1.073 c 0.114,-0.1 0.175,-0.173 0.185,-0.221 0.014,-0.077 -0.014,-0.154 -0.082,-0.232 l -0.059,-0.067 0.052,-0.045 0.712,0.81 -0.051,0.045 -0.06,-0.068 c -0.04,-0.045 -0.088,-0.078 -0.144,-0.097 -0.046,-0.014 -0.082,-0.016 -0.112,-0.006 -0.041,0.016 -0.109,0.065 -0.205,0.149 l -1.219,1.073 c -0.113,0.099 -0.174,0.173 -0.184,0.223 -0.014,0.076 0.013,0.153 0.079,0.229 l 0.056,0.063 -0.053,0.043 -0.706,-0.802 0.051,-0.046 0.059,0.067 c 0.039,0.044 0.088,0.078 0.146,0.099 0.044,0.014 0.081,0.016 0.11,0.005 0.042,-0.015 0.11,-0.065 0.206,-0.149 m 0.192,0.788 -0.005,-0.005 0.387,-0.309 0.042,0.056 c -0.087,0.077 -0.144,0.152 -0.171,0.224 -0.027,0.079 -0.03,0.149 -0.012,0.212 0.013,0.048 0.055,0.122 0.125,0.219 l 0.177,0.245 1.557,-1.122 c 0.056,-0.04 0.101,-0.077 0.134,-0.111 0.033,-0.032 0.054,-0.059 0.061,-0.081 0.026,-0.074 0.007,-0.154 -0.054,-0.24 l -0.052,-0.072 0.056,-0.04 0.623,0.866 -0.055,0.04 -0.051,-0.071 c -0.057,-0.079 -0.12,-0.122 -0.189,-0.13 -0.052,-0.004 -0.14,0.039 -0.264,0.129 l -1.558,1.122 0.208,0.287 c 0.059,0.082 0.122,0.14 0.187,0.173 0.067,0.033 0.139,0.044 0.218,0.033 0.05,-0.005 0.121,-0.033 0.212,-0.083 l 0.041,0.057 -0.439,0.285 c -0.02,-0.017 -0.04,-0.038 -0.059,-0.071 l -0.051,0.03 -1.146,-1.589 0.02,-0.016 0.006,0.007 z m 1.123,1.72 0.055,-0.036 c 0.004,0.004 0.007,0.011 0.01,0.013 0.085,0.057 0.147,0.09 0.187,0.1 0.049,0.01 0.144,0.02 0.284,0.028 l 1.257,0.071 0.516,-0.298 c 0.059,-0.035 0.107,-0.067 0.144,-0.096 0.037,-0.03 0.06,-0.055 0.07,-0.075 0.032,-0.071 0.022,-0.153 -0.03,-0.245 l -0.045,-0.077 0.059,-0.034 0.536,0.927 -0.059,0.034 -0.041,-0.07 c -0.051,-0.088 -0.111,-0.14 -0.18,-0.155 -0.05,-0.01 -0.142,0.023 -0.276,0.1 l -0.547,0.315 -0.523,1.003 c -0.068,0.127 -0.112,0.226 -0.133,0.295 -0.02,0.07 -0.027,0.138 -0.021,0.204 0.007,0.067 0.018,0.115 0.035,0.143 l 0.024,0.042 -0.059,0.034 -0.439,-0.759 0.059,-0.034 c 0.032,0.055 0.064,0.094 0.095,0.116 0.032,0.023 0.065,0.035 0.097,0.036 0.033,10e-4 0.063,-0.006 0.091,-0.023 0.05,-0.029 0.106,-0.104 0.169,-0.226 l 0.425,-0.813 -0.964,-0.049 c -0.139,-0.009 -0.227,0 -0.265,0.021 -0.048,0.028 -0.072,0.069 -0.071,0.125 10e-4,0.056 0.017,0.109 0.046,0.159 l 0.028,0.048 -0.06,0.034 -0.537,-0.93 0.008,-0.005 z m 3.336,10.763 c -0.082,-0.138 -0.125,-0.311 -0.13,-0.52 -0.004,-0.158 0.015,-0.301 0.057,-0.426 0.041,-0.125 0.098,-0.227 0.169,-0.306 0.071,-0.079 0.152,-0.14 0.245,-0.18 0.092,-0.041 0.187,-0.062 0.285,-0.065 l 0.184,-0.004 c 0.064,-0.002 0.111,-0.01 0.141,-0.025 0.031,-0.015 0.051,-0.037 0.062,-0.066 0.014,-0.036 0.02,-0.083 0.019,-0.139 0.002,-0.008 0.013,-0.012 0.034,-0.012 0.023,-10e-4 0.034,0.003 0.034,0.01 l 0.022,0.851 c -0.002,0.007 -0.012,0.011 -0.028,0.011 -0.027,10e-4 -0.04,-0.003 -0.041,-0.013 C -2.88,-1.08 -2.885,-1.118 -2.895,-1.148 -2.904,-1.179 -2.916,-1.203 -2.93,-1.221 -2.958,-1.254 -3.018,-1.27 -3.11,-1.268 l -0.202,0.005 c -0.18,0.005 -0.316,0.045 -0.407,0.12 -0.092,0.075 -0.15,0.157 -0.173,0.243 -0.024,0.087 -0.036,0.163 -0.034,0.23 0.002,0.058 0.019,0.129 0.054,0.212 0.034,0.083 0.105,0.159 0.213,0.227 0.108,0.067 0.262,0.099 0.461,0.094 l 1.368,-0.035 0.005,0.235 c 0.003,0.093 0.034,0.191 0.093,0.293 0.06,0.103 0.129,0.186 0.206,0.251 0.079,0.066 0.144,0.098 0.196,0.097 L -1.636,1.077 C -1.736,1 -1.807,0.89 -1.851,0.747 -1.875,0.669 -1.893,0.605 -1.905,0.553 -1.917,0.5 -1.926,0.453 -1.931,0.409 L -1.935,0.207 -3.234,0.24 C -3.369,0.243 -3.499,0.214 -3.623,0.15 -3.748,0.088 -3.851,-0.013 -3.932,-0.15"
         style="fill:#ffffff;fill-opacity:1;fill-rule:nonzero;stroke:none"
         transform="matrix(1.3333333,0,0,-1.3333333,3179.7028,409.47027)" />
      <g
         id="g84">
        <path
           id="path85"
           d="M 0,0 C -1.232,0 -1.91,0.429 -1.91,2.17 V 7.74 H -2.949 V 2.113 c 0,-1.288 0.429,-2.869 2.949,-2.869 2.52,0 2.949,1.581 2.949,2.869 V 7.74 H 1.91 V 2.17 C 1.91,0.429 1.232,0 0,0 M 5.559,-0.62 V 5.775 L 9.866,-0.62 h 0.789 V 7.74 H 9.854 V 1.312 L 5.457,7.74 H 4.758 v -8.36 z m 7.075,0 h 1.049 V 7.718 H 12.634 Z M 18.26,1.572 16.113,7.74 H 14.984 V 7.65 l 3.05,-8.372 H 18.26 L 21.3,7.673 V 7.74 h -0.779 z m 5.198,1.876 h 3.006 v 0.744 h -3.006 v 2.804 h 3.751 V 7.74 h -4.778 v -8.36 h 5.038 v 0.744 h -4.011 z m 6.181,-0.35 c 0.621,0 0.995,-0.057 1.368,-0.057 0.271,-0.655 1.073,-2.124 2.588,-3.661 h 1.536 v 0.09 c -0.994,0.757 -2.598,2.724 -2.892,3.639 1.514,0.304 2.236,1.253 2.236,2.316 v 0.203 c 0,1.21 -0.982,2.361 -3.276,2.248 C 30.475,7.842 29.582,7.729 29.018,7.74 h -0.417 v -8.36 h 1.038 z m 0,3.909 c 0.248,0 0.927,0.068 1.379,0.091 1.515,0.079 2.396,-0.543 2.396,-1.639 V 5.447 c 0,-1.119 -0.915,-1.673 -2.464,-1.605 -0.441,0.023 -0.938,0.045 -1.311,0.056 z m 8.859,-7.763 c 1.492,0 2.78,0.745 2.792,2.417 0.011,0.916 -0.724,1.967 -2.735,2.464 -1.718,0.43 -2.011,1.119 -1.865,1.876 0.136,0.701 0.792,1.119 1.549,1.119 0.587,0 1.457,-0.113 1.943,-1.356 h 0.113 l 0.893,0.52 C 40.397,7.617 39.154,7.876 38.295,7.876 36.69,7.876 35.798,6.793 35.662,5.888 35.481,4.713 36.261,3.662 37.945,3.21 39.459,2.803 40.273,2.283 40.182,1.3 40.081,0.249 39.086,0 38.487,0 37.9,0 36.871,0.147 36.419,1.345 h -0.113 l -0.892,-0.52 c 0.983,-1.524 2.226,-1.581 3.084,-1.581 m 4.295,0.136 h 1.049 v 8.338 h -1.049 z m 4.836,7.616 V -0.62 h 1.039 v 7.616 h 2.486 V 7.74 H 45.143 V 6.996 Z m 6.678,-3.91 V -0.62 h 1.039 V 3.165 L 58.058,7.65 V 7.74 H 57.21 L 54.939,3.978 52.85,7.74 H 51.686 V 7.65 Z"
           style="fill:#1e3c75;fill-opacity:1;fill-rule:nonzero;stroke:none"
           transform="matrix(1.3333333,0,0,-1.3333333,3200.2849,449.20307)" />
        <path
           id="path86"
           d="M 0,0 C 1.492,0 2.78,0.744 2.791,2.417 2.802,3.333 2.068,4.384 0.057,4.881 -1.661,5.31 -1.955,6 -1.808,6.757 c 0.136,0.701 0.791,1.119 1.548,1.119 0.588,0 1.458,-0.113 1.944,-1.356 H 1.797 L 2.689,7.04 C 1.898,8.372 0.655,8.632 -0.203,8.632 -1.808,8.632 -2.701,7.548 -2.836,6.644 -3.017,5.469 -2.237,4.418 -0.554,3.966 0.961,3.559 1.774,3.039 1.684,2.055 1.582,1.004 0.588,0.756 -0.011,0.756 c -0.588,0 -1.616,0.147 -2.068,1.345 H -2.192 L -3.085,1.581 C -2.102,0.056 -0.859,0 0,0 M 5.933,7.752 V 0.136 H 6.971 V 7.752 H 9.457 V 8.496 H 3.447 V 7.752 Z m 8.339,-7.616 h 1.141 v 0.09 L 12.362,8.575 H 12.136 L 9.096,0.203 V 0.136 h 0.78 l 0.87,2.373 h 2.701 z m -2.136,6.145 1.051,-3.028 h -2.17 z m 5.278,1.471 V 0.136 h 1.038 v 7.616 h 2.486 v 0.744 h -6.01 V 7.752 Z m 5.682,-3.548 h 3.006 v 0.744 h -3.006 v 2.804 h 3.752 v 0.744 h -4.779 v -8.36 h 5.039 V 0.88 h -4.012 z"
           style="fill:#1e3c75;fill-opacity:1;fill-rule:nonzero;stroke:none"
           transform="matrix(1.3333333,0,0,-1.3333333,3199.5768,435.06253)" />
        <path
           id="path87"
           d="M 0,0 V -3.706 H 1.038 V 0.079 L 3.75,4.564 V 4.655 H 2.903 L 0.632,0.893 -1.458,4.655 H -2.622 V 4.564 Z M 5.694,0.362 H 8.7 V 1.107 H 5.694 V 3.91 H 9.445 V 4.655 H 4.667 v -8.361 h 5.038 v 0.745 H 5.694 Z m 6.181,-0.35 c 0.622,0 0.995,-0.057 1.368,-0.057 0.271,-0.655 1.074,-2.124 2.588,-3.661 h 1.536 v 0.091 c -0.994,0.757 -2.598,2.723 -2.892,3.638 1.514,0.305 2.236,1.253 2.236,2.316 v 0.203 c 0,1.21 -0.982,2.361 -3.276,2.248 C 12.711,4.757 11.818,4.644 11.254,4.655 h -0.417 v -8.361 h 1.038 z m 0,3.91 c 0.248,0 0.927,0.068 1.379,0.09 1.515,0.079 2.396,-0.543 2.396,-1.639 V 2.362 c 0,-1.12 -0.915,-1.673 -2.464,-1.606 -0.441,0.023 -0.938,0.046 -1.311,0.057 z m 7.469,-3.56 H 22.35 V 1.107 H 19.344 V 3.91 h 3.752 v 0.745 h -4.779 v -8.361 h 5.038 v 0.745 h -4.011 z m 7.82,-1.876 -2.147,6.169 h -1.13 V 4.564 l 3.051,-8.371 h 0.226 l 3.04,8.394 v 0.068 h -0.78 z m 8.057,-2.192 h 1.141 v 0.091 l -3.051,8.349 h -0.226 l -3.039,-8.372 v -0.068 h 0.779 l 0.87,2.373 h 2.701 z m -2.136,6.146 1.051,-3.028 h -2.169 z m 5.209,-6.146 v 6.395 l 4.307,-6.395 h 0.789 v 8.361 h -0.801 v -6.429 l -4.397,6.429 h -0.699 v -8.361 z"
           style="fill:#1e3c75;fill-opacity:1;fill-rule:nonzero;stroke:none"
           transform="matrix(1.3333333,0,0,-1.3333333,3198.9451,414.79267)" />
      </g>
    </g>
  </g>
</svg>
